<svg width="541" height="506" viewBox="0 0 541 506" fill="none" xmlns="http://www.w3.org/2000/svg">
<path d="M255.055 4.223L238.5 13.2719L34.5451 124.756L17.9906 133.805C9.95779 138.207 3.99622 145.622 1.41376 154.422C-1.1687 163.223 -0.161153 172.69 4.21536 180.748L156.096 459.614C160.491 467.661 167.892 473.634 176.677 476.221C185.461 478.808 194.911 477.799 202.954 473.414L202.997 473.391L439.975 343.856L440.018 343.833C448.051 339.43 454.013 332.015 456.595 323.215C459.177 314.414 458.17 304.947 453.793 296.89L301.913 18.0233C297.518 9.97593 290.117 4.00355 281.332 1.41639C272.548 -1.17077 263.097 -0.161418 255.055 4.223Z" fill="#F2F2F2"/>
<path d="M259.815 12.9646L240.208 23.6823L42.3583 131.829L22.7509 142.546C17.0306 145.681 12.7852 150.962 10.9461 157.229C9.1071 163.496 9.8246 170.238 12.9412 175.975L164.822 454.842C167.951 460.573 173.222 464.826 179.478 466.668C185.733 468.51 192.463 467.792 198.19 464.669L198.233 464.646L435.212 335.111L435.255 335.088C440.975 331.952 445.22 326.672 447.059 320.405C448.898 314.138 448.181 307.396 445.064 301.659L293.184 22.7922C290.054 17.0615 284.784 12.8084 278.528 10.966C272.272 9.12365 265.543 9.8424 259.815 12.9646Z" fill="white"/>
<path d="M263.084 99.5249L174.701 147.836C173.362 148.568 171.787 148.737 170.324 148.306C168.86 147.875 167.628 146.88 166.897 145.538C166.167 144.197 165.998 142.62 166.428 141.154C166.858 139.688 167.852 138.453 169.191 137.721L257.575 89.4095C258.914 88.6776 260.489 88.5086 261.952 88.9395C263.415 89.3705 264.648 90.3662 265.378 91.7076C266.109 93.049 266.278 94.6262 265.847 96.0922C265.417 97.5582 264.423 98.793 263.084 99.5249H263.084Z" fill="#F2F2F2"/>
<path d="M293.206 105.211L183.997 164.906C182.658 165.638 181.084 165.807 179.621 165.376C178.157 164.945 176.925 163.949 176.194 162.608C175.464 161.267 175.295 159.689 175.725 158.223C176.155 156.757 177.149 155.523 178.488 154.791L287.697 95.0959C288.36 94.7335 289.088 94.5055 289.839 94.4249C290.59 94.3442 291.349 94.4126 292.074 94.6259C292.798 94.8393 293.474 95.1936 294.062 95.6686C294.65 96.1435 295.139 96.7298 295.5 97.394C295.862 98.0582 296.09 98.7872 296.17 99.5396C296.251 100.292 296.182 101.053 295.969 101.779C295.756 102.504 295.403 103.181 294.929 103.77C294.455 104.359 293.869 104.849 293.206 105.211H293.206Z" fill="#F2F2F2"/>
<path d="M138.365 127.726L56.8802 172.266C56.2388 172.617 55.7627 173.209 55.5566 173.911C55.3505 174.614 55.4313 175.369 55.7812 176.012L90.4795 239.721C90.8296 240.364 91.4202 240.841 92.1213 241.048C92.8224 241.254 93.5767 241.173 94.2183 240.823L175.703 196.282C176.345 195.931 176.821 195.34 177.027 194.637C177.233 193.935 177.152 193.179 176.802 192.537L142.104 128.827C141.754 128.185 141.163 127.708 140.462 127.501C139.761 127.295 139.007 127.376 138.365 127.726Z" fill="#F2F2F2"/>
<path d="M306.938 180.362L187.057 245.89C186.394 246.253 185.666 246.481 184.915 246.561C184.164 246.642 183.405 246.574 182.68 246.36C181.955 246.147 181.28 245.793 180.692 245.318C180.104 244.843 179.615 244.256 179.253 243.592C178.892 242.928 178.664 242.199 178.584 241.447C178.503 240.694 178.571 239.933 178.784 239.208C178.997 238.482 179.351 237.805 179.825 237.216C180.299 236.627 180.884 236.137 181.547 235.775L301.429 170.246C302.768 169.514 304.342 169.345 305.806 169.776C307.269 170.207 308.502 171.203 309.232 172.544C309.963 173.886 310.132 175.463 309.701 176.929C309.271 178.395 308.277 179.63 306.938 180.362H306.938Z" fill="#F2F2F2"/>
<path d="M337.06 186.048L196.353 262.96C195.014 263.692 193.44 263.861 191.977 263.43C190.513 262.999 189.281 262.003 188.55 260.662C187.82 259.32 187.651 257.743 188.081 256.277C188.511 254.811 189.505 253.576 190.844 252.845L331.551 175.933C332.89 175.201 334.465 175.032 335.928 175.463C337.391 175.894 338.624 176.889 339.354 178.231C340.085 179.572 340.254 181.149 339.823 182.615C339.393 184.081 338.399 185.316 337.06 186.048H337.06Z" fill="#F2F2F2"/>
<path d="M141.4 299.556C154.875 299.556 165.799 288.612 165.799 275.112C165.799 261.613 154.875 250.669 141.4 250.669C127.925 250.669 117.001 261.613 117.001 275.112C117.001 288.612 127.925 299.556 141.4 299.556Z" fill="#F2F2F2"/>
<path d="M506.464 119.128H236.408C227.252 119.138 218.474 122.786 211.999 129.273C205.525 135.759 201.883 144.553 201.873 153.726V471.402C201.883 480.574 205.525 489.369 211.999 495.855C218.474 502.341 227.252 505.99 236.408 506H506.464C515.621 505.99 524.399 502.341 530.873 495.855C537.348 489.369 540.99 480.574 541 471.402V153.726C540.99 144.553 537.348 135.759 530.873 129.273C524.399 122.786 515.621 119.138 506.464 119.128Z" fill="#E6E6E6"/>
<path d="M506.465 129.088H236.408C229.888 129.095 223.637 131.693 219.026 136.312C214.416 140.931 211.822 147.194 211.815 153.726V471.402C211.822 477.934 214.416 484.196 219.026 488.815C223.637 493.434 229.888 496.033 236.408 496.04H506.465C512.985 496.032 519.236 493.434 523.847 488.815C528.457 484.196 531.051 477.934 531.058 471.402V153.726C531.051 147.194 528.457 140.931 523.847 136.312C519.236 131.693 512.985 129.095 506.465 129.088Z" fill="white"/>
<path d="M467.95 206.642H367.266C365.74 206.642 364.278 206.035 363.199 204.954C362.121 203.874 361.515 202.408 361.515 200.88C361.515 199.352 362.121 197.887 363.199 196.806C364.278 195.726 365.74 195.119 367.266 195.119H467.95C468.706 195.118 469.454 195.266 470.153 195.555C470.851 195.845 471.486 196.269 472.021 196.804C472.555 197.339 472.98 197.975 473.269 198.674C473.558 199.373 473.707 200.123 473.707 200.88C473.707 201.637 473.558 202.387 473.269 203.087C472.98 203.786 472.555 204.422 472.021 204.957C471.486 205.492 470.851 205.916 470.153 206.205C469.454 206.494 468.706 206.643 467.95 206.642Z" fill="#5843E4"/>
<path d="M491.673 226.087H367.266C365.74 226.087 364.278 225.48 363.199 224.4C362.121 223.319 361.515 221.854 361.515 220.326C361.515 218.797 362.121 217.332 363.199 216.252C364.278 215.171 365.74 214.564 367.266 214.564H491.673C493.199 214.564 494.661 215.171 495.74 216.252C496.819 217.332 497.424 218.797 497.424 220.326C497.424 221.854 496.819 223.319 495.74 224.4C494.661 225.48 493.199 226.087 491.673 226.087Z" fill="#5843E4"/>
<path d="M344.984 171.553H252.159C251.428 171.554 250.727 171.845 250.211 172.362C249.694 172.88 249.404 173.582 249.404 174.314V246.89C249.404 247.622 249.694 248.324 250.211 248.842C250.727 249.359 251.428 249.65 252.159 249.65H344.984C345.715 249.65 346.416 249.359 346.932 248.842C347.449 248.324 347.739 247.622 347.74 246.89V174.314C347.739 173.582 347.449 172.88 346.932 172.362C346.416 171.845 345.715 171.554 344.984 171.553Z" fill="#E6E6E6"/>
<path d="M277.622 216.12C277.66 222.247 275.406 228.166 271.304 232.71C267.245 237.172 261.202 240.132 255.105 238.907C249.49 237.78 244.927 232.864 245.496 226.916C245.591 225.628 245.965 224.376 246.591 223.247C247.218 222.118 248.084 221.14 249.127 220.381C250.17 219.621 251.365 219.099 252.631 218.85C253.896 218.601 255.2 218.632 256.452 218.939C261.786 220.326 263.911 228.027 259.467 231.642C258.4 232.509 256.868 230.992 257.944 230.117C260.883 227.727 259.975 222.5 256.428 221.189C252.299 219.662 247.925 222.945 247.628 227.174C247.276 232.188 251.11 235.964 255.812 236.853C260.898 237.815 265.941 235.207 269.388 231.607C273.338 227.427 275.517 221.876 275.469 216.12C275.479 215.84 275.596 215.575 275.797 215.381C275.998 215.187 276.266 215.078 276.545 215.078C276.825 215.078 277.093 215.187 277.294 215.381C277.494 215.575 277.612 215.84 277.622 216.12Z" fill="#2F2E41"/>
<path d="M298.644 229.831C319.855 229.831 337.051 212.604 337.051 191.354C337.051 170.105 319.855 152.878 298.644 152.878C277.432 152.878 260.237 170.105 260.237 191.354C260.237 212.604 277.432 229.831 298.644 229.831Z" fill="#5843E4"/>
<path d="M296.679 207.772L296.639 206.334C299.309 206.26 301.663 206.092 303.432 204.797C303.933 204.409 304.346 203.918 304.64 203.356C304.935 202.794 305.106 202.175 305.141 201.542C305.172 201.154 305.113 200.765 304.97 200.404C304.826 200.043 304.602 199.72 304.313 199.461C303.139 198.467 301.25 198.789 299.873 199.421L298.685 199.967L300.963 183.295L302.384 183.49L300.447 197.672C302.319 197.121 304.052 197.358 305.24 198.363C305.696 198.761 306.054 199.26 306.285 199.821C306.517 200.381 306.616 200.987 306.575 201.592C306.533 202.444 306.306 203.276 305.909 204.03C305.512 204.784 304.956 205.442 304.278 205.958C302.006 207.622 299.052 207.705 296.679 207.772Z" fill="#2F2E41"/>
<path d="M317.147 184.713H309.417V186.151H317.147V184.713Z" fill="#2F2E41"/>
<path d="M292.747 184.713H285.017V186.151H292.747V184.713Z" fill="#2F2E41"/>
<path d="M277.369 249.65C280.248 247.82 283.359 246.386 286.62 245.387C286.308 244.279 286.313 243.106 286.634 242.001C287.067 240.605 287.938 239.386 289.119 238.527C290.3 237.668 291.727 237.215 293.186 237.235H302.544C304.005 237.216 305.434 237.67 306.617 238.53C307.8 239.391 308.675 240.61 309.11 242.008C309.43 243.111 309.435 244.282 309.124 245.387C312.384 246.388 315.495 247.822 318.374 249.65H277.369Z" fill="#2F2E41"/>
<path d="M342.637 177.075C341.938 176.226 341.077 175.525 340.104 175.011C339.251 174.565 338.304 174.331 337.341 174.328C336.02 174.345 334.737 174.777 333.674 175.565C330.754 177.636 328.73 182.1 328.73 187.269C328.73 193.754 331.916 199.131 336.057 200.066C336.479 200.161 336.909 200.209 337.341 200.21C342.085 200.21 345.953 194.408 345.953 187.269C345.953 183.128 344.654 179.44 342.637 177.075Z" fill="#3F3D56"/>
<path d="M263.756 175.256H263.749C262.79 174.659 261.685 174.338 260.555 174.329C259.593 174.331 258.646 174.565 257.792 175.012C256.82 175.525 255.959 176.226 255.259 177.075L255.252 177.082C253.243 179.447 251.944 183.135 251.944 187.269C251.944 192.848 254.298 197.607 257.599 199.426C258.502 199.934 259.52 200.203 260.555 200.21C260.786 200.21 261.016 200.195 261.244 200.167H261.251C265.672 199.635 269.167 194.056 269.167 187.269C269.167 181.834 266.921 177.168 263.756 175.256Z" fill="#3F3D56"/>
<path d="M258.137 198.189C258.308 198.189 258.476 198.148 258.628 198.07C258.78 197.992 258.912 197.878 259.011 197.739C259.111 197.6 259.176 197.439 259.201 197.27C259.227 197.101 259.212 196.928 259.157 196.766C257.1 190.637 256.481 184.115 257.349 177.707C258.216 171.3 260.547 165.179 264.16 159.821C267.773 154.462 272.57 150.011 278.18 146.812C283.789 143.613 290.059 141.753 296.503 141.376C302.946 140.999 309.39 142.116 315.332 144.64C321.275 147.164 326.557 151.026 330.767 155.927C334.977 160.829 338.003 166.636 339.608 172.899C341.214 179.162 341.356 185.712 340.024 192.039C339.966 192.319 340.02 192.611 340.176 192.85C340.332 193.09 340.576 193.258 340.856 193.317C341.135 193.376 341.426 193.321 341.665 193.165C341.905 193.009 342.072 192.764 342.131 192.484C343.532 185.832 343.383 178.946 341.696 172.361C340.008 165.775 336.828 159.669 332.401 154.516C327.975 149.362 322.422 145.301 316.173 142.647C309.925 139.994 303.151 138.819 296.376 139.216C289.601 139.612 283.009 141.568 277.111 144.931C271.213 148.295 266.17 152.976 262.372 158.61C258.574 164.245 256.124 170.68 255.212 177.417C254.301 184.155 254.953 191.011 257.117 197.455C257.189 197.669 257.326 197.855 257.509 197.986C257.692 198.118 257.912 198.189 258.137 198.189Z" fill="#3F3D56"/>
<path d="M317.937 166.425C319.458 168.505 318.708 171.308 317.106 173.101C315.021 175.434 311.696 175.581 308.809 175.148C305.569 174.662 302.133 173.142 298.853 174.166C296.058 175.04 294.064 177.58 291.16 178.218C288.584 178.783 285.504 178.034 284.601 175.284C284.167 173.963 286.246 173.396 286.677 174.711C287.261 176.49 289.784 176.455 291.228 175.962C293.544 175.172 295.328 173.251 297.605 172.333C300.288 171.251 303.199 171.74 305.931 172.356C308.506 172.937 311.47 173.798 314.035 172.713C315.933 171.91 317.444 169.381 316.078 167.514C315.259 166.393 317.126 165.316 317.937 166.425Z" fill="#2F2E41"/>
<path d="M467.798 298.646H331.233C330.478 298.646 329.73 298.497 329.032 298.207C328.334 297.918 327.7 297.493 327.166 296.958C326.632 296.423 326.209 295.788 325.92 295.089C325.631 294.39 325.482 293.641 325.482 292.884C325.482 292.128 325.631 291.378 325.92 290.679C326.209 289.98 326.632 289.345 327.166 288.81C327.7 288.275 328.334 287.851 329.032 287.561C329.73 287.272 330.478 287.123 331.233 287.123H467.798C469.322 287.124 470.784 287.732 471.861 288.812C472.938 289.893 473.543 291.357 473.543 292.884C473.543 294.411 472.938 295.876 471.861 296.956C470.784 298.036 469.322 298.644 467.798 298.646Z" fill="#E6E6E6"/>
<path d="M491.522 318.091H331.233C330.477 318.092 329.729 317.943 329.03 317.654C328.332 317.365 327.697 316.941 327.162 316.406C326.627 315.871 326.203 315.235 325.914 314.536C325.624 313.836 325.475 313.087 325.475 312.329C325.475 311.572 325.624 310.823 325.914 310.123C326.203 309.424 326.627 308.788 327.162 308.253C327.697 307.718 328.332 307.294 329.03 307.005C329.729 306.715 330.477 306.567 331.233 306.568H491.522C492.277 306.567 493.026 306.715 493.725 307.005C494.423 307.294 495.058 307.718 495.593 308.253C496.127 308.788 496.551 309.424 496.841 310.123C497.13 310.823 497.279 311.572 497.279 312.329C497.279 313.087 497.13 313.836 496.841 314.536C496.551 315.235 496.127 315.871 495.593 316.406C495.058 316.941 494.423 317.365 493.725 317.654C493.026 317.943 492.277 318.092 491.522 318.091Z" fill="#E6E6E6"/>
<path d="M467.798 368.535H331.233C329.708 368.535 328.245 367.928 327.166 366.847C326.088 365.767 325.482 364.301 325.482 362.773C325.482 361.245 326.088 359.78 327.166 358.699C328.245 357.619 329.708 357.012 331.233 357.012H467.798C469.324 357.012 470.786 357.619 471.865 358.699C472.944 359.78 473.549 361.245 473.549 362.773C473.549 364.301 472.944 365.767 471.865 366.847C470.786 367.928 469.324 368.535 467.798 368.535Z" fill="#E6E6E6"/>
<path d="M491.522 387.98H331.233C329.708 387.98 328.245 387.373 327.166 386.293C326.088 385.212 325.482 383.747 325.482 382.219C325.482 380.691 326.088 379.225 327.166 378.145C328.245 377.064 329.708 376.457 331.233 376.457H491.522C493.047 376.457 494.51 377.064 495.588 378.145C496.667 379.225 497.273 380.691 497.273 382.219C497.273 383.747 496.667 385.212 495.588 386.293C494.51 387.373 493.047 387.98 491.522 387.98Z" fill="#E6E6E6"/>
<path d="M277.183 326.834C290.658 326.834 301.582 315.89 301.582 302.39C301.582 288.891 290.658 277.947 277.183 277.947C263.707 277.947 252.784 288.891 252.784 302.39C252.784 315.89 263.707 326.834 277.183 326.834Z" fill="#E6E6E6"/>
<path d="M277.183 397.289C290.658 397.289 301.582 386.345 301.582 372.845C301.582 359.345 290.658 348.402 277.183 348.402C263.707 348.402 252.784 359.345 252.784 372.845C252.784 386.345 263.707 397.289 277.183 397.289Z" fill="#E6E6E6"/>
<path d="M467.798 438.99H331.233C329.708 438.99 328.245 438.383 327.166 437.302C326.088 436.222 325.482 434.756 325.482 433.228C325.482 431.7 326.088 430.234 327.166 429.154C328.245 428.073 329.708 427.466 331.233 427.466H467.798C469.324 427.466 470.786 428.073 471.865 429.154C472.944 430.234 473.549 431.7 473.549 433.228C473.549 434.756 472.944 436.222 471.865 437.302C470.786 438.383 469.324 438.99 467.798 438.99Z" fill="#E6E6E6"/>
<path d="M491.522 458.435H331.233C329.708 458.435 328.245 457.828 327.166 456.747C326.088 455.667 325.482 454.201 325.482 452.673C325.482 451.145 326.088 449.68 327.166 448.599C328.245 447.519 329.708 446.912 331.233 446.912H491.522C493.047 446.912 494.51 447.519 495.588 448.599C496.667 449.68 497.273 451.145 497.273 452.673C497.273 454.201 496.667 455.667 495.588 456.747C494.51 457.828 493.047 458.435 491.522 458.435Z" fill="#E6E6E6"/>
<path d="M277.183 467.743C290.658 467.743 301.582 456.8 301.582 443.3C301.582 429.8 290.658 418.856 277.183 418.856C263.707 418.856 252.784 429.8 252.784 443.3C252.784 456.8 263.707 467.743 277.183 467.743Z" fill="#E6E6E6"/>
</svg>
