<svg width="168" height="63" viewBox="0 0 168 63" fill="none" xmlns="http://www.w3.org/2000/svg">
<path d="M17.4 48.6C13.56 48.6 10.16 47.78 7.2 46.14C4.28 44.5 2.2 42.32 0.96 39.6C0.64 38.96 0.62 38.38 0.9 37.86C1.22 37.3 1.74 36.92 2.46 36.72C3.02 36.56 3.56 36.62 4.08 36.9C4.64 37.18 5.06 37.6 5.34 38.16C6.26 39.92 7.78 41.36 9.9 42.48C12.02 43.6 14.52 44.16 17.4 44.16C20.56 44.16 23.16 43.4 25.2 41.88C27.28 40.32 28.32 38.08 28.32 35.16C28.32 32.72 27.42 30.62 25.62 28.86C23.82 27.1 21 25.98 17.16 25.5C12.48 24.94 8.82 23.5 6.18 21.18C3.54 18.82 2.22 15.94 2.22 12.54C2.22 10.1 2.86 7.98 4.14 6.18C5.46 4.38 7.26 3 9.54 2.04C11.82 1.04 14.44 0.539999 17.4 0.539999C20.72 0.539999 23.56 1.3 25.92 2.82C28.28 4.3 30.1 6.06 31.38 8.1C31.78 8.74 31.9 9.36 31.74 9.96C31.62 10.56 31.28 11.02 30.72 11.34C30.12 11.62 29.5 11.66 28.86 11.46C28.26 11.26 27.8 10.88 27.48 10.32C26.56 8.92 25.3 7.7 23.7 6.66C22.14 5.58 20.02 5.02 17.34 4.98C14.18 4.98 11.64 5.66 9.72 7.02C7.8 8.34 6.84 10.28 6.84 12.84C6.84 14.88 7.66 16.66 9.3 18.18C10.98 19.7 13.94 20.76 18.18 21.36C23.18 22.08 26.88 23.62 29.28 25.98C31.72 28.3 32.94 31.34 32.94 35.1C32.94 37.98 32.24 40.44 30.84 42.48C29.48 44.48 27.62 46 25.26 47.04C22.9 48.08 20.28 48.6 17.4 48.6ZM44.4666 48C43.7466 48 43.1666 47.8 42.7266 47.4C42.3266 46.96 42.1266 46.4 42.1266 45.72V17.52C42.1266 16.8 42.3266 16.24 42.7266 15.84C43.1666 15.4 43.7466 15.18 44.4666 15.18C45.1466 15.18 45.6866 15.4 46.0866 15.84C46.5266 16.24 46.7466 16.8 46.7466 17.52V19.56C48.0266 18.08 49.6066 16.92 51.4866 16.08C53.4066 15.24 55.4666 14.82 57.6666 14.82C60.5066 14.82 63.0466 15.42 65.2866 16.62C67.5266 17.78 69.2866 19.5 70.5666 21.78C71.8866 24.06 72.5466 26.84 72.5466 30.12V45.72C72.5466 46.36 72.3266 46.9 71.8866 47.34C71.4466 47.78 70.9066 48 70.2666 48C69.5866 48 69.0266 47.78 68.5866 47.34C68.1466 46.9 67.9266 46.36 67.9266 45.72V30.12C67.9266 26.4 66.8866 23.66 64.8066 21.9C62.7666 20.1 60.2266 19.2 57.1866 19.2C55.2266 19.2 53.4466 19.58 51.8466 20.34C50.2866 21.1 49.0466 22.14 48.1266 23.46C47.2066 24.78 46.7466 26.28 46.7466 27.96V45.72C46.7466 46.4 46.5266 46.96 46.0866 47.4C45.6866 47.8 45.1466 48 44.4666 48ZM44.4666 34.62C43.7466 34.62 43.1666 34.4 42.7266 33.96C42.3266 33.52 42.1266 32.96 42.1266 32.28V3.48C42.1266 2.76 42.3266 2.2 42.7266 1.8C43.1666 1.36 43.7466 1.14 44.4666 1.14C45.1466 1.14 45.6866 1.36 46.0866 1.8C46.5266 2.2 46.7466 2.76 46.7466 3.48V32.28C46.7466 32.96 46.5266 33.52 46.0866 33.96C45.6866 34.4 45.1466 34.62 44.4666 34.62ZM86.032 48C85.312 48 84.732 47.8 84.292 47.4C83.892 46.96 83.692 46.38 83.692 45.66V17.52C83.692 16.8 83.892 16.24 84.292 15.84C84.732 15.4 85.312 15.18 86.032 15.18C86.712 15.18 87.252 15.4 87.652 15.84C88.092 16.24 88.312 16.8 88.312 17.52V45.66C88.312 46.38 88.092 46.96 87.652 47.4C87.252 47.8 86.712 48 86.032 48ZM85.972 8.94C85.092 8.94 84.332 8.62 83.692 7.98C83.052 7.34 82.732 6.56 82.732 5.64C82.732 4.64 83.052 3.86 83.692 3.3C84.372 2.7 85.152 2.4 86.032 2.4C86.872 2.4 87.612 2.7 88.252 3.3C88.932 3.86 89.272 4.64 89.272 5.64C89.272 6.56 88.952 7.34 88.312 7.98C87.672 8.62 86.892 8.94 85.972 8.94ZM102.416 48C101.696 48 101.116 47.8 100.676 47.4C100.276 46.96 100.076 46.4 100.076 45.72V17.52C100.076 16.8 100.276 16.24 100.676 15.84C101.116 15.4 101.696 15.18 102.416 15.18C103.096 15.18 103.636 15.4 104.036 15.84C104.476 16.24 104.696 16.8 104.696 17.52V19.56C105.976 18.08 107.556 16.92 109.436 16.08C111.356 15.24 113.416 14.82 115.616 14.82C118.456 14.82 120.996 15.42 123.236 16.62C125.476 17.78 127.236 19.5 128.516 21.78C129.836 24.06 130.496 26.84 130.496 30.12V45.72C130.496 46.36 130.276 46.9 129.836 47.34C129.396 47.78 128.856 48 128.216 48C127.536 48 126.976 47.78 126.536 47.34C126.096 46.9 125.876 46.36 125.876 45.72V30.12C125.876 26.4 124.836 23.66 122.756 21.9C120.716 20.1 118.176 19.2 115.136 19.2C113.176 19.2 111.396 19.58 109.796 20.34C108.236 21.1 106.996 22.14 106.076 23.46C105.156 24.78 104.696 26.28 104.696 27.96V45.72C104.696 46.4 104.476 46.96 104.036 47.4C103.636 47.8 103.096 48 102.416 48ZM146.321 62.28C146.001 62.28 145.641 62.2 145.241 62.04C143.881 61.44 143.501 60.48 144.101 59.16L150.101 46.02L150.041 45.96L136.661 18.24C136.381 17.64 136.341 17.08 136.541 16.56C136.741 16.04 137.141 15.64 137.741 15.36C139.061 14.76 140.021 15.1 140.621 16.38L152.321 41.04L163.481 16.44C164.081 15.16 165.041 14.8 166.361 15.36C167.721 15.92 168.101 16.86 167.501 18.18L148.061 60.9C147.661 61.82 147.081 62.28 146.321 62.28Z" fill="black"/>
</svg>
