<svg width="496" height="376" viewBox="0 0 496 376" fill="none" xmlns="http://www.w3.org/2000/svg">
<path opacity="0.1" d="M245.806 376C350.047 376 434.551 369.894 434.551 362.362C434.551 354.829 350.047 348.723 245.806 348.723C141.565 348.723 57.061 354.829 57.061 362.362C57.061 369.894 141.565 376 245.806 376Z" fill="#5843E4"/>
<path opacity="0.1" d="M490.206 299.753C488.149 302.917 485.627 305.751 482.723 308.16C481.924 308.82 481.095 309.462 480.253 310.06C469.471 317.799 455.034 321.2 441.01 323.404C413.781 327.681 385.984 328.514 358.305 329.329C335 330.023 311.683 330.717 288.37 331.177C255.047 331.845 221.72 332.045 188.45 331.177C170.263 330.7 152.091 329.858 133.933 328.652C100.241 326.349 65.6816 322.28 36.3524 308.069C30.9856 305.506 25.8567 302.472 21.0259 299.003C13.061 293.203 6.50243 286.185 2.99526 277.873C-2.64747 264.512 0.334492 249.499 6.78022 236.399C10.6867 228.478 15.7608 221.06 21.0259 213.707C24.1425 209.343 27.3284 205.005 30.3581 200.602C30.675 200.168 30.9832 199.704 31.287 199.253C31.873 198.386 32.4546 197.518 33.0232 196.65C35.4019 192.994 37.6546 189.22 39.7207 185.372C41.7803 181.534 43.6419 177.593 45.2983 173.564C46.8176 169.883 48.122 166.117 49.2048 162.286C49.9254 159.705 50.5331 157.115 51.0018 154.525C53.5671 140.423 52.2128 126.329 44.6169 113.571C44.5431 113.445 44.465 113.311 44.3868 113.185L44.2913 113.033C42.1471 109.515 39.5601 106.201 37.0166 102.874C33.9782 98.8829 30.9875 94.866 28.8823 90.4717C23.3438 78.8592 24.5418 65.8021 26.5558 53.4001C29.2426 36.9161 34.2429 19.1307 49.7257 8.85427C65.8075 -1.84298 88.6388 -1.30074 108.601 2.52528C139.619 8.45518 168.262 20.8919 197.183 32.1141C226.104 43.3362 256.384 53.5996 288.183 54.6971C316.262 55.6732 349.012 48.3855 367.646 29.4289C385.746 11.0232 419.771 9.62207 444.304 20.7531C467.709 31.3593 482.844 53.8122 481.707 76.2304C480.049 108.882 448.562 133.924 429.776 162.494C428.934 163.769 428.114 165.075 427.333 166.398C419.954 178.861 415.409 193.171 420.852 206.146C428.153 223.528 449.83 232.009 468.112 242.927C476.941 248.198 484.997 254.041 490.206 261.745C490.401 262.022 490.579 262.296 490.757 262.569C498.105 273.934 497.55 288.449 490.206 299.753Z" fill="#5843E4"/>
<path opacity="0.3" d="M33.0187 196.641C35.3974 192.984 37.6501 189.21 39.7162 185.363C41.777 181.527 43.6401 177.589 45.2982 173.563C46.8175 169.883 48.1218 166.117 49.2047 162.285C49.9252 159.704 50.5329 157.114 51.0017 154.524C53.5669 140.422 52.2127 126.328 44.6167 113.57C44.5429 113.445 44.4648 113.31 44.3867 113.184L37.0077 102.873H91.7639V139.207H106.995V248.197H126.649V212.843H150.231V248.197H169.872V187.8H170.853V156.377H189.518V187.8H232.754V234.936H256.831V220.187H271.589V234.936H295.662V95.4901H327.105V73.3928H332.509V95.4901H341.35V139.19H357.076V102.856H370.341V65.5499H397.851V102.856H411.12V139.19H427.332V166.393C419.954 178.856 415.409 193.166 420.852 206.141C428.153 223.523 449.83 232.004 468.112 242.922C476.941 248.197 484.997 254.04 490.205 261.744V299.766C488.148 302.924 485.625 305.754 482.722 308.16C481.924 308.819 481.095 309.461 480.253 310.06C469.471 317.798 455.034 321.199 441.01 323.403C413.781 327.68 385.984 328.513 358.305 329.329C335 330.023 311.683 330.717 288.369 331.177H188.441C170.254 330.699 152.082 329.858 133.924 328.652C100.232 326.348 65.6728 322.279 36.3436 308.069C30.9767 305.505 25.8478 302.471 21.0171 299.002V213.706C24.1336 209.342 27.3196 205.005 30.3493 200.602L33.0187 196.641Z" fill="#5843E4"/>
<path opacity="0.4" d="M50.9842 154.507V162.268H49.2046C49.9078 159.687 50.5068 157.097 50.9842 154.507Z" fill="white"/>
<path opacity="0.4" d="M76.5327 162.268H97.1677V150.482H76.5327V162.268Z" fill="white"/>
<path opacity="0.4" d="M50.9842 173.563V185.345H39.6987C41.7649 181.516 43.6337 177.584 45.2981 173.563H50.9842Z" fill="white"/>
<path opacity="0.4" d="M76.5327 185.345H97.1677V173.559H76.5327V185.345Z" fill="white"/>
<path opacity="0.4" d="M33.0186 196.637H50.9841V208.423H30.3491V200.602L33.0186 196.637Z" fill="white"/>
<path opacity="0.4" d="M76.5327 208.423H97.1677V196.637H76.5327V208.423Z" fill="white"/>
<path opacity="0.4" d="M50.9841 219.719H30.3491V231.505H50.9841V219.719Z" fill="white"/>
<path opacity="0.4" d="M76.5327 231.5H97.1677V219.714H76.5327V231.5Z" fill="white"/>
<path opacity="0.4" d="M50.9841 242.796H30.3491V254.582H50.9841V242.796Z" fill="white"/>
<path opacity="0.4" d="M76.5327 254.578H97.1677V242.792H76.5327V254.578Z" fill="white"/>
<path opacity="0.4" d="M50.9841 265.874H30.3491V277.66H50.9841V265.874Z" fill="white"/>
<path opacity="0.4" d="M76.5327 277.656H97.1677V265.869H76.5327V277.656Z" fill="white"/>
<path opacity="0.4" d="M50.9841 288.951H30.3491V300.737H50.9841V288.951Z" fill="white"/>
<path opacity="0.4" d="M76.5327 300.733H97.1677V288.947H76.5327V300.733Z" fill="white"/>
<path opacity="0.4" d="M162.515 259.979H114.365V265.87H162.515V259.979Z" fill="white"/>
<path opacity="0.4" d="M162.515 268.819H114.365V274.71H162.515V268.819Z" fill="white"/>
<path opacity="0.4" d="M162.515 277.656H114.365V283.546H162.515V277.656Z" fill="white"/>
<path opacity="0.4" d="M288.291 262.928H240.141V268.819H288.291V262.928Z" fill="white"/>
<path opacity="0.4" d="M288.291 271.765H240.141V277.656H288.291V271.765Z" fill="white"/>
<path opacity="0.4" d="M288.291 280.601H240.141V286.492H288.291V280.601Z" fill="white"/>
<path opacity="0.4" d="M162.515 286.496H114.365V292.387H162.515V286.496Z" fill="white"/>
<path opacity="0.4" d="M162.515 295.333H114.365V301.223H162.515V295.333Z" fill="white"/>
<path opacity="0.4" d="M162.515 304.173H114.365V310.064H162.515V304.173Z" fill="white"/>
<path opacity="0.4" d="M193.463 199.096H180.198V216.283H193.463V199.096Z" fill="white"/>
<path opacity="0.4" d="M209.189 216.279H222.454V199.092H209.189V216.279Z" fill="white"/>
<path opacity="0.4" d="M193.463 226.59H180.198V243.777H193.463V226.59Z" fill="white"/>
<path opacity="0.4" d="M209.189 243.777H222.454V226.59H209.189V243.777Z" fill="white"/>
<path opacity="0.4" d="M193.463 254.088H180.198V271.274H193.463V254.088Z" fill="white"/>
<path opacity="0.4" d="M209.189 271.275H222.454V254.088H209.189V271.275Z" fill="white"/>
<path opacity="0.4" d="M193.463 281.586H180.198V298.772H193.463V281.586Z" fill="white"/>
<path opacity="0.4" d="M209.189 298.772H222.454V281.586H209.189V298.772Z" fill="white"/>
<path opacity="0.4" d="M313.345 106.786H295.657V129.373H313.345V106.786Z" fill="white"/>
<path opacity="0.4" d="M313.345 139.19H295.657V161.777H313.345V139.19Z" fill="white"/>
<path opacity="0.4" d="M313.345 171.598H295.657V194.186H313.345V171.598Z" fill="white"/>
<path opacity="0.4" d="M313.345 204.007H295.657V226.594H313.345V204.007Z" fill="white"/>
<path opacity="0.4" d="M313.345 236.411H295.657V258.998H313.345V236.411Z" fill="white"/>
<path opacity="0.4" d="M313.345 268.819H295.657V291.407H313.345V268.819Z" fill="white"/>
<path opacity="0.4" d="M417.262 152.941H351.425V172.089H417.262V152.941Z" fill="white"/>
<path opacity="0.4" d="M417.505 194.186H351.668V213.333H417.505V194.186Z" fill="white"/>
<path opacity="0.4" d="M417.753 235.431H351.915V254.578H417.753V235.431Z" fill="white"/>
<path opacity="0.4" d="M417.996 276.675H352.158V295.823H417.996V276.675Z" fill="white"/>
<path opacity="0.4" d="M44.5992 113.167V113.553C44.5254 113.427 44.4473 113.293 44.3691 113.167H44.5992Z" fill="white"/>
<path opacity="0.4" d="M490.205 261.744V268.832H468.112V242.935C476.941 248.197 484.997 254.04 490.205 261.744Z" fill="white"/>
<path opacity="0.4" d="M490.205 281.586V299.753C488.149 302.916 485.626 305.75 482.722 308.16C481.924 308.819 481.095 309.461 480.252 310.06H468.099V281.586H490.205Z" fill="white"/>
<path opacity="0.1" d="M151.06 88.9528H147.679C148.306 88.9528 148.908 88.7037 149.351 88.2603C149.795 87.817 150.044 87.2156 150.044 86.5886C150.044 85.9616 149.795 85.3603 149.351 84.9169C148.908 84.4736 148.306 84.2245 147.679 84.2245H120.294C119.667 84.2245 119.065 84.4736 118.621 84.9169C118.178 85.3603 117.929 85.9616 117.929 86.5886C117.929 87.2156 118.178 87.817 118.621 88.2603C119.065 88.7037 119.667 88.9528 120.294 88.9528H123.675C123.065 88.9789 122.488 89.2396 122.066 89.6806C121.643 90.1215 121.407 90.7085 121.407 91.3191C121.407 91.9297 121.643 92.5167 122.066 92.9577C122.488 93.3986 123.065 93.6593 123.675 93.6854H118.944C118.317 93.6854 117.715 93.9345 117.271 94.3779C116.828 94.8212 116.579 95.4226 116.579 96.0496C116.579 96.6766 116.828 97.2779 117.271 97.7213C117.715 98.1646 118.317 98.4137 118.944 98.4137H146.324C146.952 98.4137 147.554 98.1646 147.997 97.7213C148.441 97.2779 148.69 96.6766 148.69 96.0496C148.69 95.4226 148.441 94.8212 147.997 94.3779C147.554 93.9345 146.952 93.6854 146.324 93.6854H151.06C151.67 93.6593 152.247 93.3986 152.67 92.9577C153.093 92.5167 153.329 91.9297 153.329 91.3191C153.329 90.7085 153.093 90.1215 152.67 89.6806C152.247 89.2396 151.67 88.9789 151.06 88.9528V88.9528Z" fill="#5843E4"/>
<path opacity="0.1" d="M271.923 148.365H268.542C269.169 148.365 269.771 148.116 270.214 147.672C270.658 147.229 270.907 146.628 270.907 146C270.907 145.373 270.658 144.772 270.214 144.329C269.771 143.885 269.169 143.636 268.542 143.636H241.157C240.53 143.636 239.928 143.885 239.484 144.329C239.041 144.772 238.791 145.373 238.791 146C238.791 146.628 239.041 147.229 239.484 147.672C239.928 148.116 240.53 148.365 241.157 148.365H244.53C243.919 148.391 243.342 148.652 242.92 149.092C242.497 149.533 242.261 150.12 242.261 150.731C242.261 151.342 242.497 151.929 242.92 152.37C243.342 152.81 243.919 153.071 244.53 153.097H239.798C239.488 153.097 239.18 153.158 238.893 153.277C238.606 153.396 238.345 153.57 238.126 153.79C237.906 154.009 237.732 154.27 237.613 154.557C237.494 154.844 237.433 155.151 237.433 155.461C237.433 155.772 237.494 156.079 237.613 156.366C237.732 156.653 237.906 156.914 238.126 157.133C238.345 157.353 238.606 157.527 238.893 157.646C239.18 157.764 239.488 157.826 239.798 157.826H267.187C267.815 157.826 268.416 157.577 268.86 157.133C269.304 156.69 269.553 156.088 269.553 155.461C269.553 154.834 269.304 154.233 268.86 153.79C268.416 153.346 267.815 153.097 267.187 153.097H271.923C272.533 153.071 273.11 152.81 273.533 152.37C273.955 151.929 274.191 151.342 274.191 150.731C274.191 150.12 273.955 149.533 273.533 149.092C273.11 148.652 272.533 148.391 271.923 148.365V148.365Z" fill="#5843E4"/>
<path opacity="0.1" d="M477.783 70.7857H474.401C475.029 70.7857 475.631 70.5366 476.074 70.0932C476.518 69.6499 476.767 69.0485 476.767 68.4215C476.767 67.7945 476.518 67.1932 476.074 66.7498C475.631 66.3065 475.029 66.0574 474.401 66.0574H447.017C446.39 66.0574 445.788 66.3065 445.344 66.7498C444.901 67.1932 444.651 67.7945 444.651 68.4215C444.651 69.0485 444.901 69.6499 445.344 70.0932C445.788 70.5366 446.39 70.7857 447.017 70.7857H450.398C449.771 70.7857 449.169 71.0348 448.725 71.4781C448.282 71.9215 448.033 72.5228 448.033 73.1498C448.033 73.7768 448.282 74.3782 448.725 74.8215C449.169 75.2649 449.771 75.514 450.398 75.514H445.667C445.057 75.5401 444.48 75.8008 444.057 76.2417C443.634 76.6827 443.398 77.2697 443.398 77.8803C443.398 78.4909 443.634 79.0779 444.057 79.5189C444.48 79.9598 445.057 80.2205 445.667 80.2466H473.047C473.367 80.2603 473.686 80.2092 473.985 80.0965C474.284 79.9837 474.557 79.8116 474.788 79.5905C475.019 79.3695 475.203 79.104 475.328 78.81C475.454 78.5161 475.519 78.1999 475.519 77.8803C475.519 77.5607 475.454 77.2445 475.328 76.9506C475.203 76.6566 475.019 76.3912 474.788 76.1701C474.557 75.949 474.284 75.7769 473.985 75.6641C473.686 75.5514 473.367 75.5003 473.047 75.514H477.783C478.41 75.514 479.012 75.2649 479.456 74.8215C479.899 74.3782 480.148 73.7768 480.148 73.1498C480.148 72.5228 479.899 71.9215 479.456 71.4781C479.012 71.0348 478.41 70.7857 477.783 70.7857V70.7857Z" fill="#5843E4"/>
<path d="M438.483 187.258L438.509 187.219L438.405 187.15L438.193 187.007C438.208 187.016 438.221 187.028 438.232 187.041C438.045 186.933 437.825 186.898 437.614 186.942C437.403 186.987 437.216 187.109 437.09 187.284L436.96 187.462L430.883 196.181L429.82 197.713C426.625 196.75 421.434 200.801 418.799 203.122L418.339 203.534C418.13 203.066 418.009 202.771 418.009 202.771C417.879 204.193 412.839 206.332 411.663 207.108C411.133 207.427 410.541 207.628 409.927 207.698C410.092 202.272 405.899 196.563 405.899 196.563L395.651 183.515C395.273 181.156 395.638 178.738 396.697 176.596C396.779 176.427 396.87 176.257 396.966 176.088C397.109 176.088 397.261 176.088 397.4 176.088H397.456C398.293 176.087 399.128 176.013 399.952 175.867C402.969 175.332 405.719 173.8 407.76 171.517C409.801 169.233 411.015 166.33 411.207 163.274C412.24 163.009 413.117 162.051 412.97 160.949C413.008 160.74 413.008 160.525 412.97 160.316C412.942 160.184 412.902 160.055 412.852 159.93V159.93C412.562 159.188 411.936 158.589 411.485 157.912C410.852 156.921 410.513 155.77 410.508 154.594C410.548 153.567 410.708 152.547 410.986 151.557C411.193 150.967 411.291 150.344 411.277 149.718V149.592C411.285 149.429 411.277 149.265 411.255 149.102C411.236 148.986 411.209 148.871 411.173 148.759V148.759C410.92 148.061 410.436 147.471 409.801 147.085C408.178 146.027 406.098 146.009 404.275 145.35C401.628 144.383 399.236 141.992 396.462 142.569C394.952 142.882 393.793 144.04 392.486 144.855C391.045 145.757 389.39 146.259 387.69 146.313C386.262 146.356 384.817 146.079 383.41 146.313C383.158 146.358 382.909 146.425 382.668 146.512C381.472 146.106 380.215 145.908 378.953 145.927C377.713 145.895 376.493 146.232 375.445 146.894C373.544 148.217 373.041 150.798 373.067 153.093C373.064 153.112 373.064 153.131 373.067 153.149C373.067 153.301 373.067 153.449 373.067 153.583C373.067 154.685 373.175 155.804 373.197 156.906C373.208 157.934 373.061 158.958 372.763 159.943C371.895 162.667 369.382 164.749 368.878 167.573C368.793 168.06 368.764 168.554 368.791 169.048C368.757 170.644 369.269 172.245 369.742 173.793C370.723 176.995 371.478 180.396 371.504 183.719C371.484 185.782 371.073 187.824 370.293 189.735C370.058 190.294 369.768 190.827 369.425 191.327C369.312 191.483 369.195 191.64 369.069 191.787L369.021 191.843C368.913 191.969 368.796 192.086 368.678 192.199L368.583 192.29C368.471 192.389 368.353 192.481 368.231 192.568L368.114 192.655C367.951 192.765 367.78 192.862 367.602 192.945L368.47 192.893C368.205 193.114 367.913 193.3 367.602 193.448L372.212 193.179C372.223 193.229 372.231 193.28 372.233 193.331C372.22 193.446 372.198 193.559 372.168 193.67C372.137 193.777 372.099 193.883 372.055 193.986C372.056 194.001 372.056 194.015 372.055 194.03C371.962 194.236 371.842 194.43 371.699 194.607L371.66 194.65C371.589 194.738 371.513 194.82 371.43 194.897V194.897C371.351 194.968 371.267 195.033 371.179 195.093L371.122 195.136C371.03 195.195 370.934 195.249 370.836 195.296V195.296C370.74 195.34 370.641 195.378 370.541 195.409L370.462 195.431C370.357 195.46 370.25 195.481 370.141 195.492L370.575 195.444C370.866 195.409 371.157 195.37 371.443 195.322H371.53C371.16 195.705 370.67 195.948 370.141 196.012C371.134 195.935 372.115 195.741 373.062 195.435C373.661 199.465 374.994 211.746 374.26 214.014C373.475 216.431 375.48 234.147 375.48 234.147C375.48 234.147 375.754 235.504 376.231 237.53C374.998 240.441 373.592 243.66 372.884 244.952C371.469 247.555 372.164 260.768 377.051 266.642C377.051 266.642 379.074 269.492 378.54 270.546C378.006 271.6 378.631 273.4 378.631 273.4L379.404 290.509C379.387 292.257 379.267 294.002 379.044 295.736C376.965 298.317 373.748 302.078 372.238 302.677C369.898 303.627 352.449 324.8 352.449 324.8C352.449 324.8 352.588 325.056 352.861 325.472L352.371 326.04L349.024 329.919L348.76 330.227C348.13 330.109 343.95 329.359 340.625 329.107L340.3 329.086V329.029C339.132 328.892 337.951 328.923 336.793 329.12H336.767C336.549 329.163 336.348 329.269 336.189 329.424C335.056 330.808 334.453 352.588 334.453 352.588C334.453 352.588 335.66 363.468 339.41 364.093C339.606 364.16 339.811 364.2 340.018 364.21H340.022C340.091 364.214 340.161 364.214 340.23 364.21C342.922 364.014 344.137 362.474 344.697 361.412C344.861 361.092 344.986 360.754 345.07 360.405C345.07 360.405 344.636 358.462 345.812 355.785C346.989 353.109 349.172 348.437 349.172 348.437C349.172 348.437 353.161 344.242 352.449 342.208L352.831 341.657C354.333 339.523 357.358 335.306 359.806 332.491L360.284 331.949C361.176 332.328 362.11 332.599 363.066 332.756C363.066 332.756 366.816 331.289 368.214 327.984C368.809 326.587 371.135 324.114 373.614 321.729C373.562 322.136 373.536 322.366 373.536 322.366L373.449 343.188C374.255 343.743 375.114 344.215 376.014 344.598C376.014 344.767 376.014 344.941 376.014 345.119C376.033 348.087 375.854 351.053 375.48 353.998L375.402 354.458C375.094 354.237 374.829 354.163 374.655 354.337C373.887 355.113 373.41 360.084 373.353 362.375C373.353 362.418 373.353 362.461 373.353 362.505C373.301 363.451 373.049 364.578 373.049 365.585C373.023 367.047 373.483 368.279 375.849 368.383C378.788 368.504 391.427 368.699 398.194 368.816C401.841 368.89 405.39 367.633 408.178 365.281C409.419 364.218 410.37 363.038 410.4 361.924C410.461 361.056 409.996 360.245 408.703 359.533C408.697 359.563 408.688 359.592 408.677 359.62C408.507 359.529 408.325 359.438 408.125 359.351L401.615 358.332L390.546 352.688C390.546 352.688 390.481 349.27 389.153 349.838C388.757 349.92 388.377 350.067 388.029 350.272C387.964 350.142 387.894 350.012 387.829 349.873C386.928 348.083 386.46 346.107 386.462 344.103C386.462 343.921 386.462 343.739 386.488 343.553C386.815 343.259 387.122 342.945 387.408 342.611C387.408 342.611 387.321 334.833 388.189 333.363C389.057 331.892 391.77 317.026 391.77 317.026C391.77 317.026 391.857 314.263 393.602 312.619C395.347 310.975 394.735 306.225 394.735 306.225C394.735 306.225 397.174 304.924 397.96 300.694C398.746 296.465 401.276 287.212 401.276 287.212C401.276 287.212 406.511 273.556 406.164 264.915C405.816 256.274 406.684 251.78 406.684 251.78L407.774 231.7V231.388C408.208 231.722 408.499 231.986 408.499 231.986C408.499 231.986 408.499 231.908 408.499 231.769L408.751 231.986C408.751 231.986 409.306 222.877 409.119 219.263C412.158 218.226 416.82 216.522 417.08 215.654C417.475 214.353 422.723 210.275 422.723 210.275C422.611 210.254 422.504 210.213 422.406 210.154C422.571 210.08 422.74 209.989 422.922 209.893C426.351 208.054 432.728 202.688 431.656 199.404L438.627 189.384C438.848 189.066 438.954 188.682 438.928 188.296C438.902 187.91 438.745 187.544 438.483 187.258V187.258ZM381.691 177.515C381.522 177.518 381.352 177.531 381.184 177.554C380.875 175.766 380.439 174.002 379.881 172.275C379.074 169.56 378.206 166.827 378.076 164.003C378.076 163.881 378.076 163.756 378.076 163.634C378.09 162.89 378.187 162.149 378.367 161.426C378.532 161.734 378.718 162.038 378.909 162.324C380.025 164.007 381.327 165.608 382.013 167.503C382.325 168.371 382.507 169.312 382.985 170.106C383.462 170.9 384.344 171.572 385.272 171.429C385.592 171.378 385.892 171.242 386.141 171.035C384.894 173.348 383.403 175.521 381.691 177.515Z" fill="url(#paint0_linear)"/>
<path d="M421.698 212.08C421.195 212.392 420.637 212.604 420.053 212.704C417.883 212.765 416.147 206.957 416.147 206.957C416.147 206.957 416.759 206.336 417.731 205.469C420.609 202.914 426.651 198.19 429.481 200.831C432.645 203.794 425.396 210.08 421.698 212.08Z" fill="#ECB4B6"/>
<path d="M389.07 350.61L381.149 359.156C381.149 359.156 373.818 359.238 375.254 355.195C375.536 354.32 375.74 353.422 375.862 352.51C376.225 349.633 376.398 346.735 376.378 343.834C376.378 341.939 376.348 340.611 376.348 340.611C376.348 340.611 387.89 335.558 386.709 340.82C386.557 341.49 386.475 342.175 386.466 342.863C386.458 344.811 386.904 346.734 387.768 348.48C388.132 349.231 388.568 349.944 389.07 350.61Z" fill="#ECB4B6"/>
<path opacity="0.1" d="M389.07 350.61L381.149 359.156C381.149 359.156 373.818 359.238 375.254 355.195C375.536 354.32 375.74 353.422 375.862 352.51C376.908 353.317 378.414 355.703 378.414 355.703C378.414 355.703 383.467 357.178 384.856 352.758C385.637 350.285 386.861 349.062 387.794 348.463C388.149 349.218 388.576 349.938 389.07 350.61V350.61Z" fill="black"/>
<path d="M407.444 363.481C404.762 365.78 401.328 367.015 397.795 366.951C391.262 366.856 379.053 366.665 376.218 366.548C372.424 366.383 373.683 363.147 373.805 360.908C373.805 360.83 373.805 360.757 373.805 360.683C373.848 358.453 374.313 353.612 375.055 352.875C375.797 352.137 378.401 356.241 378.401 356.241C378.401 356.241 383.454 357.716 384.843 353.295C386.232 348.875 389.071 348.42 389.071 348.42C390.373 347.864 390.42 351.196 390.42 351.196L401.12 356.714L407.396 357.703C407.6 357.794 407.783 357.889 407.956 357.98C410.773 359.551 409.523 361.685 407.444 363.481Z" fill="#5843E4"/>
<path opacity="0.25" d="M387.673 354.987C387.929 354.987 388.137 354.779 388.137 354.523C388.137 354.267 387.929 354.059 387.673 354.059C387.416 354.059 387.208 354.267 387.208 354.523C387.208 354.779 387.416 354.987 387.673 354.987Z" fill="white"/>
<path opacity="0.25" d="M392.013 357.134C392.27 357.134 392.478 356.927 392.478 356.67C392.478 356.414 392.27 356.206 392.013 356.206C391.757 356.206 391.549 356.414 391.549 356.67C391.549 356.927 391.757 357.134 392.013 357.134Z" fill="white"/>
<path opacity="0.25" d="M394.249 358.137C394.505 358.137 394.713 357.929 394.713 357.672C394.713 357.416 394.505 357.208 394.249 357.208C393.992 357.208 393.784 357.416 393.784 357.672C393.784 357.929 393.992 358.137 394.249 358.137Z" fill="white"/>
<path opacity="0.25" d="M398.88 359.915C399.137 359.915 399.344 359.707 399.344 359.451C399.344 359.195 399.137 358.987 398.88 358.987C398.623 358.987 398.416 359.195 398.416 359.451C398.416 359.707 398.623 359.915 398.88 359.915Z" fill="white"/>
<path opacity="0.25" d="M396.523 359.156C396.78 359.156 396.987 358.948 396.987 358.692C396.987 358.435 396.78 358.228 396.523 358.228C396.267 358.228 396.059 358.435 396.059 358.692C396.059 358.948 396.267 359.156 396.523 359.156Z" fill="white"/>
<path d="M407.444 363.481C404.762 365.78 401.328 367.015 397.795 366.951C391.262 366.856 379.053 366.665 376.218 366.548C372.424 366.383 373.683 363.147 373.805 360.908L397.617 362.383C397.617 362.383 407.37 360.904 407.952 358.002C410.773 359.551 409.523 361.685 407.444 363.481Z" fill="#5843E4"/>
<path opacity="0.25" d="M407.444 363.385C404.758 365.675 401.325 366.901 397.795 366.83C391.262 366.734 379.053 366.548 376.218 366.426C372.424 366.261 373.683 363.025 373.805 360.787L397.617 362.258C397.617 362.258 407.37 360.778 407.952 357.876C410.773 359.455 409.523 361.589 407.444 363.385Z" fill="white"/>
<path d="M363.114 329.138C362.237 329.85 361.435 330.651 360.722 331.528C358.361 334.274 355.44 338.382 353.99 340.46C353.43 341.266 353.087 341.761 353.087 341.761L349.927 341.292C349.927 341.292 346.516 336.087 346.559 335.948C346.602 335.809 349.255 330.222 349.255 330.222L350.283 329.021L353.521 325.238L354.984 323.529C354.984 323.529 365.979 327.073 363.114 329.138Z" fill="#ECB4B6"/>
<path opacity="0.1" d="M353.99 340.46C353.43 341.266 353.087 341.761 353.087 341.761L349.927 341.292C349.927 341.292 346.516 336.087 346.559 335.948C346.602 335.809 349.254 330.222 349.254 330.222L350.283 329.021L350.622 329.081H351.42C348.599 332.027 351.633 338.512 351.633 338.512C351.633 338.512 352.944 338.642 353.99 340.46Z" fill="black"/>
<path d="M350.44 347.066C350.44 347.066 348.33 351.612 347.193 354.224C346.056 356.835 346.477 358.731 346.477 358.731C346.396 359.069 346.275 359.397 346.116 359.707C345.711 360.509 345.096 361.187 344.337 361.667C343.577 362.148 342.701 362.413 341.802 362.435C341.734 362.442 341.666 362.442 341.598 362.435C337.774 362.336 336.55 351.191 336.55 351.191C336.55 351.191 337.136 329.975 338.234 328.634C338.384 328.481 338.578 328.377 338.79 328.339C339.906 328.147 341.045 328.116 342.171 328.248C345.643 328.496 350.114 329.35 350.114 329.35H350.913C348.091 332.296 351.121 338.781 351.121 338.781C351.121 338.781 352.471 338.907 353.526 340.802C354.58 342.698 350.44 347.066 350.44 347.066Z" fill="#5843E4"/>
<path opacity="0.25" d="M345.817 341.219C346.073 341.219 346.281 341.011 346.281 340.755C346.281 340.498 346.073 340.291 345.817 340.291C345.56 340.291 345.352 340.498 345.352 340.755C345.352 341.011 345.56 341.219 345.817 341.219Z" fill="white"/>
<path opacity="0.25" d="M345.587 344.893C345.843 344.893 346.051 344.685 346.051 344.429C346.051 344.172 345.843 343.965 345.587 343.965C345.33 343.965 345.122 344.172 345.122 344.429C345.122 344.685 345.33 344.893 345.587 344.893Z" fill="white"/>
<path d="M345.817 359.629C345.296 360.657 344.08 362.162 341.502 362.357H341.324C337.483 362.258 336.259 351.114 336.259 351.114C336.259 351.114 336.849 329.897 337.943 328.557C338.093 328.404 338.287 328.301 338.499 328.262C339.617 328.069 340.757 328.038 341.884 328.17C341.819 331.979 341.641 344.038 341.884 345.236C342.127 346.433 344.289 356.419 345.817 359.629Z" fill="#5843E4"/>
<path opacity="0.25" d="M346.099 359.707C345.694 360.509 345.079 361.187 344.319 361.668C343.559 362.148 342.683 362.414 341.784 362.435C341.716 362.442 341.648 362.442 341.58 362.435C337.739 362.336 336.519 351.192 336.519 351.192C336.519 351.192 337.109 329.975 338.203 328.634C338.354 328.482 338.548 328.379 338.759 328.34C339.877 328.147 341.017 328.116 342.144 328.248C342.079 332.057 341.897 344.116 342.144 345.314C342.392 346.511 344.566 356.497 346.099 359.707Z" fill="white"/>
<path d="M341.324 362.357C337.483 362.258 336.259 351.114 336.259 351.114C336.259 351.114 336.849 329.897 337.943 328.556C338.093 328.403 338.287 328.3 338.499 328.261C339.306 329.459 340.013 332.109 339.367 337.944C338.169 348.997 339.614 349.691 339.614 349.691C339.614 349.691 341.389 359.061 341.324 362.357Z" fill="#5843E4"/>
<path opacity="0.1" d="M341.272 362.357C337.418 362.258 336.207 351.105 336.207 351.105C336.207 351.105 336.797 329.888 337.891 328.548C338.041 328.395 338.235 328.292 338.446 328.253C339.254 329.45 339.957 332.101 339.314 337.935C338.116 348.988 339.562 349.682 339.562 349.682C339.562 349.682 341.359 359.061 341.272 362.357Z" fill="black"/>
<path opacity="0.1" d="M421.698 212.08C421.195 212.392 420.637 212.604 420.053 212.704C417.883 212.765 416.147 206.957 416.147 206.957C416.147 206.957 416.759 206.336 417.731 205.469C418.404 207.056 420.344 211.294 421.698 212.08Z" fill="black"/>
<path d="M407.917 209.989C407.917 209.989 409.688 210.115 410.825 209.356C411.962 208.596 416.828 206.514 416.954 205.126C416.954 205.126 419.862 212.197 421.503 212.448C421.503 212.448 416.451 216.431 416.069 217.693C415.687 218.955 405.833 222.031 405.833 222.031L407.917 209.989Z" fill="#FF748E"/>
<path d="M407.917 209.989C407.917 209.989 409.688 210.115 410.825 209.356C411.962 208.596 416.828 206.514 416.954 205.126C416.954 205.126 419.862 212.197 421.503 212.448C421.503 212.448 416.451 216.431 416.069 217.693C415.687 218.955 405.833 222.031 405.833 222.031L407.917 209.989Z" fill="#5843E4"/>
<path opacity="0.1" d="M363.114 329.138C362.237 329.85 361.435 330.651 360.722 331.528C356.916 329.932 354.454 326.678 353.521 325.247L354.984 323.537C354.984 323.537 365.979 327.073 363.114 329.138Z" fill="black"/>
<path d="M381.144 293.307C381.144 293.307 374.963 301.549 372.706 302.486C370.449 303.423 353.608 324.041 353.608 324.041C353.608 324.041 357.219 330.717 363.895 331.788C363.895 331.788 367.519 330.357 368.865 327.16C370.211 323.963 380.823 314.949 380.823 314.949L381.144 293.307Z" fill="#5E5A6B"/>
<path opacity="0.1" d="M381.144 293.307C381.144 293.307 374.963 301.549 372.706 302.486C370.449 303.423 353.608 324.041 353.608 324.041C353.608 324.041 357.219 330.717 363.895 331.788C363.895 331.788 367.519 330.357 368.865 327.16C370.211 323.963 380.823 314.949 380.823 314.949L381.144 293.307Z" fill="black"/>
<path opacity="0.1" d="M362.419 320.948C364.295 321.147 366.186 321.147 368.062 320.948C371.395 320.631 368.865 322.653 362.419 320.948Z" fill="black"/>
<path opacity="0.1" d="M360.904 323.095C360.904 323.095 365.327 325.62 367.033 324.357C368.739 323.095 365.388 325.576 360.904 323.095Z" fill="black"/>
<path opacity="0.1" d="M386.705 340.841C386.555 341.505 386.475 342.183 386.466 342.863C383.05 345.96 378.939 345.006 376.37 343.874C376.37 341.978 376.339 340.651 376.339 340.651C376.339 340.651 387.885 335.58 386.705 340.841Z" fill="black"/>
<path d="M407.179 230.997L407.053 233.327L405.999 252.891C405.999 252.891 405.13 257.268 405.491 265.687C405.851 274.107 400.79 287.412 400.79 287.412C400.79 287.412 398.346 296.426 397.587 300.551C396.827 304.676 394.47 305.939 394.47 305.939C394.47 305.939 395.06 310.572 393.376 312.168C391.692 313.764 391.61 316.462 391.61 316.462C391.61 316.462 389.005 330.947 388.137 332.378C387.269 333.81 387.378 341.388 387.378 341.388C381.9 347.873 373.896 341.978 373.896 341.978L373.978 321.685C373.978 321.685 376.257 302.993 377.941 300.382C379.625 297.77 379.625 290.613 379.625 290.613L378.874 273.942C378.874 273.942 378.275 272.173 378.792 271.162C379.308 270.151 377.351 267.384 377.351 267.384C372.633 261.657 371.96 248.774 373.327 246.245C374.694 243.716 378.792 233.617 378.792 233.617L384.435 230.329L394.622 230.633L407.179 230.997Z" fill="#5E5A6B"/>
<path opacity="0.1" d="M383.211 330.231C383.211 330.231 384.543 334.842 385.615 335.345C386.687 335.848 383.211 330.231 383.211 330.231Z" fill="black"/>
<path opacity="0.1" d="M385.042 314.883C385.042 314.883 388.515 317.608 389.943 317.599C391.371 317.59 385.042 314.883 385.042 314.883Z" fill="black"/>
<path d="M405.834 200.892V206.449L402.162 204.87L398.503 203.291L390.542 195.461C390.542 195.461 384.244 191.371 380.871 187.653C378.944 185.527 377.972 183.519 379.673 182.448C380.492 181.909 381.233 181.259 381.874 180.517C383.569 178.522 385.044 176.349 386.271 174.036L386.427 173.754C388.068 170.744 389.149 168.176 389.149 168.176C389.149 168.176 393.767 169.655 396.74 171.75C396.979 171.915 397.205 172.089 397.422 172.267C399.08 173.624 399.9 175.195 398.377 176.765C397.983 177.172 397.618 177.607 397.287 178.066V178.066C397.04 178.406 396.816 178.761 396.614 179.129C396.523 179.294 396.436 179.459 396.354 179.619C395.331 181.71 394.978 184.066 395.343 186.365L405.834 200.892Z" fill="#ECB4B6"/>
<path opacity="0.1" d="M398.377 176.769C397.983 177.176 397.618 177.611 397.287 178.071V178.071C397.04 178.41 396.816 178.765 396.614 179.133C396.523 179.298 396.436 179.463 396.354 179.624C394.406 179.516 392.506 178.98 390.79 178.053C389.074 177.126 387.584 175.831 386.427 174.262C386.369 174.19 386.317 174.116 386.271 174.041L386.427 173.759C388.068 170.748 389.149 168.18 389.149 168.18C389.149 168.18 393.767 169.659 396.74 171.755C396.979 171.919 397.205 172.093 397.422 172.271C399.08 173.629 399.922 175.199 398.377 176.769Z" fill="black"/>
<path d="M410.37 165.877C410.372 167.619 410.031 169.345 409.365 170.955C408.699 172.565 407.722 174.028 406.489 175.26C405.257 176.492 403.793 177.469 402.182 178.134C400.571 178.799 398.844 179.141 397.1 179.138H397.044C396.901 179.138 396.753 179.138 396.61 179.138C394.071 179.044 391.611 178.224 389.525 176.774C387.438 175.324 385.812 173.307 384.84 170.96C383.867 168.614 383.59 166.038 384.039 163.538C384.489 161.039 385.648 158.721 387.377 156.86C389.107 155 391.335 153.674 393.796 153.042C396.257 152.41 398.848 152.497 401.261 153.294C403.674 154.091 405.807 155.563 407.407 157.536C409.007 159.509 410.007 161.899 410.287 164.424C410.341 164.906 410.368 165.391 410.37 165.877V165.877Z" fill="#ECB4B6"/>
<path opacity="0.1" d="M398.841 198.662C398.841 198.662 405.526 202.432 403.811 199.252L395.091 186.369L404.992 199.083C404.992 199.083 411.312 207.759 407.856 213.732C407.856 213.732 407.349 218.704 407.939 219.879C408.529 221.055 407.77 233.609 407.77 233.609C407.77 233.609 405.413 231.44 404.15 231.839C402.886 232.238 393.954 233.019 393.954 233.019L398.841 198.662Z" fill="black"/>
<path opacity="0.1" d="M407.179 230.997L407.053 233.327C406.255 232.745 405.139 232.095 404.401 232.342C403.138 232.776 394.205 233.522 394.205 233.522L394.618 230.624L407.179 230.997Z" fill="black"/>
<path d="M399.093 198.662C399.093 198.662 405.777 202.432 404.063 199.252L395.343 186.369L405.243 199.083C405.243 199.083 411.563 207.759 408.108 213.732C408.108 213.732 407.605 218.704 408.191 219.879C408.777 221.055 408.026 233.609 408.026 233.609C408.026 233.609 405.664 231.44 404.401 231.839C403.138 232.238 394.205 233.019 394.205 233.019L399.093 198.662Z" fill="#464353"/>
<path opacity="0.1" d="M402.665 205.122C402.274 209.169 400.608 213.984 400.608 213.984C400.608 213.984 399.431 225.944 397.912 229.483C396.393 233.023 397.07 237.903 396.228 246.913C395.924 250.153 394.878 252.383 393.467 253.888C391.149 256.361 387.825 256.877 385.22 256.725C385.008 256.725 384.786 256.699 384.6 256.678C380.385 256.244 376.353 235.964 376.353 235.964C376.353 235.964 374.417 218.704 375.172 216.344C375.927 213.984 374.417 200.515 373.909 197.565C373.588 195.7 374.556 192.646 375.302 190.663C375.736 189.514 376.101 188.724 376.101 188.724C376.101 188.724 377.533 184.178 379.89 181.823C380.215 181.489 380.604 181.224 381.033 181.044C381.463 180.864 381.924 180.772 382.39 180.773C383.499 180.814 384.577 181.151 385.511 181.749L385.62 181.823C385.62 181.823 400.955 197.483 402.387 201.105C402.778 202.111 402.817 203.56 402.665 205.122Z" fill="black"/>
<path d="M402.162 204.87C401.771 208.917 400.104 213.732 400.104 213.732C400.104 213.732 398.924 225.692 397.409 229.227C395.894 232.763 396.541 237.647 395.725 246.657C395.421 249.902 394.375 252.131 392.964 253.637C390.642 256.109 387.321 256.626 384.717 256.474L384.101 256.426C379.886 255.992 375.853 235.713 375.853 235.713C375.853 235.713 373.918 218.448 374.677 216.092C375.437 213.737 373.918 200.263 373.414 197.313C373.093 195.448 374.057 192.394 374.807 190.408C375.241 189.262 375.602 188.473 375.602 188.473C375.602 188.473 377.034 183.927 379.395 181.567C379.72 181.235 380.108 180.971 380.537 180.791C380.966 180.612 381.426 180.52 381.891 180.522C383.001 180.562 384.08 180.899 385.016 181.498L385.125 181.567C385.125 181.567 400.46 197.231 401.888 200.849C402.27 201.881 402.313 203.308 402.162 204.87Z" fill="#5843E4"/>
<path opacity="0.1" d="M384.982 266.516C384.982 266.516 381.509 269.609 380.302 269.483C379.096 269.357 384.982 266.516 384.982 266.516Z" fill="black"/>
<path opacity="0.1" d="M385.906 269.483C385.906 269.483 382.243 271.183 381.131 271.435C380.02 271.687 384.491 269.045 385.906 269.483Z" fill="black"/>
<path opacity="0.1" d="M400.082 222.998C400.082 222.998 405.517 223.059 406.337 224.764C407.157 226.468 401.853 222.304 400.082 222.998Z" fill="black"/>
<path opacity="0.1" d="M399.323 225.965C399.323 225.965 403.494 226.833 404.757 227.861C406.02 228.889 399.323 225.965 399.323 225.965Z" fill="black"/>
<path opacity="0.1" d="M392.313 215.671C392.313 215.671 391.809 232.784 389.943 234.997C388.076 237.209 392.313 215.671 392.313 215.671Z" fill="black"/>
<path opacity="0.1" d="M387.634 264.048C387.634 264.048 384.161 279.139 391.145 280.098C398.129 281.056 395.976 262.92 395.976 262.92L387.634 264.048Z" fill="black"/>
<path d="M387.382 263.792C387.382 263.792 383.909 278.888 390.889 279.842C397.869 280.796 395.724 262.664 395.724 262.664L387.382 263.792Z" fill="#ECB4B6"/>
<path opacity="0.1" d="M393.355 200.432C392.994 191.362 380.294 189.488 377.329 198.068C377.308 198.125 377.29 198.181 377.269 198.242C375.333 204.05 376.175 218.76 376.175 218.76C376.175 218.76 376.426 228.637 377.355 231.921C378.284 235.205 380.893 244.636 380.893 246.154C380.893 247.672 383.315 253.48 384.335 253.901C385.355 254.322 385.872 257.606 386.119 258.196C386.366 258.786 387.13 266.438 387.13 266.438C387.13 266.438 396.649 265.848 396.818 264.334C396.988 262.82 394.713 255.415 394.713 255.415C394.713 255.415 393.033 252.379 392.821 249.941C392.608 247.503 391.258 246.405 391.519 244.735C391.779 243.065 390.759 242.206 390.759 241.113C390.759 240.02 390.004 237.07 390.004 237.07C390.004 237.07 388.402 235.808 388.654 234.294C388.906 232.78 386.379 229.748 387.052 228.655C387.725 227.562 387.894 224.868 387.894 224.868C387.894 224.868 388.736 212.722 389.327 209.455C389.917 206.189 393.372 200.871 393.372 200.871C393.372 200.871 393.363 200.701 393.355 200.432Z" fill="black"/>
<path opacity="0.1" d="M392.977 253.637C390.655 256.109 387.334 256.625 384.73 256.474C384.43 255.324 383.987 253.914 383.341 253.645C382.321 253.212 379.899 247.416 379.899 245.902C379.899 244.388 377.294 234.953 376.361 231.67C375.428 228.386 375.18 218.508 375.18 218.508C375.18 218.508 374.312 203.799 376.261 197.977C376.261 197.916 376.296 197.86 376.318 197.799C379.282 189.219 391.983 191.097 392.343 200.168C392.343 200.437 392.343 200.601 392.343 200.601C392.343 200.601 388.871 205.907 388.302 209.191C387.733 212.474 386.865 224.599 386.865 224.599C386.865 224.599 386.696 227.297 386.023 228.39C385.35 229.483 387.877 232.515 387.625 234.029C387.373 235.543 388.97 236.806 388.97 236.806C388.97 236.806 389.73 239.751 389.73 240.849C389.73 241.946 390.741 242.783 390.49 244.471C390.238 246.158 391.588 247.247 391.792 249.676C391.983 251.049 392.382 252.384 392.977 253.637V253.637Z" fill="black"/>
<path d="M392.847 200.181C392.486 191.11 379.79 189.232 376.826 197.812C376.826 197.873 376.782 197.929 376.765 197.99C374.829 203.799 375.671 218.508 375.671 218.508C375.671 218.508 375.923 228.386 376.847 231.67C377.772 234.953 380.389 244.393 380.389 245.902C380.389 247.412 382.807 253.225 383.831 253.645C384.856 254.066 385.368 257.354 385.615 257.94C385.863 258.525 386.622 266.182 386.622 266.182C386.622 266.182 396.145 265.592 396.31 264.074C396.475 262.555 394.205 255.151 394.205 255.151C394.205 255.151 392.53 252.114 392.313 249.676C392.096 247.238 390.75 246.141 391.011 244.471C391.271 242.801 390.251 241.942 390.251 240.849C390.251 239.755 389.491 236.806 389.491 236.806C389.491 236.806 387.89 235.543 388.146 234.029C388.402 232.515 385.867 229.479 386.544 228.39C387.221 227.301 387.386 224.603 387.386 224.603C387.386 224.603 388.228 212.457 388.819 209.191C389.409 205.924 392.864 200.602 392.864 200.602C392.864 200.602 392.86 200.45 392.847 200.181Z" fill="#5843E4"/>
<path opacity="0.1" d="M377.208 223.501C377.459 223.25 382.264 217.944 383.779 219.84C385.294 221.736 377.208 223.501 377.208 223.501Z" fill="black"/>
<path opacity="0.1" d="M377.65 227.605C377.837 227.418 382.451 227.228 383.588 224.638C384.725 222.048 377.65 227.605 377.65 227.605Z" fill="black"/>
<g opacity="0.1">
<path opacity="0.1" d="M372.394 181.059C372.508 181.192 372.594 181.347 372.646 181.515C372.74 181.226 372.767 180.919 372.723 180.618C372.68 180.317 372.567 180.03 372.394 179.78C372.168 179.519 371.838 179.368 371.634 179.094C371.634 179.073 371.608 179.047 371.591 179.021C371.477 179.226 371.42 179.459 371.428 179.695C371.436 179.93 371.507 180.159 371.634 180.357C371.838 180.626 372.168 180.782 372.394 181.059Z" fill="black"/>
<path opacity="0.1" d="M378.823 164.675C378.823 164.194 378.844 163.716 378.823 163.244C378.731 161.508 378.415 159.773 378.341 158.038C378.241 160.146 378.71 162.376 378.823 164.506V164.675Z" fill="black"/>
</g>
<path d="M423.539 208.471L423.799 208.653C423.572 208.495 423.416 208.254 423.365 207.982C423.315 207.709 423.374 207.428 423.53 207.2L435.25 190.212C435.327 190.1 435.427 190.004 435.542 189.93C435.657 189.855 435.785 189.804 435.92 189.78C436.054 189.755 436.192 189.757 436.326 189.786C436.46 189.815 436.587 189.87 436.699 189.948L436.443 189.766C436.625 189.89 436.78 190.049 436.9 190.233C437.021 190.418 437.103 190.624 437.143 190.84C437.184 191.057 437.181 191.279 437.135 191.494C437.09 191.709 437.002 191.914 436.877 192.095L425.887 208.041C425.762 208.225 425.602 208.382 425.416 208.503C425.23 208.624 425.021 208.707 424.803 208.747C424.584 208.787 424.36 208.783 424.143 208.736C423.926 208.688 423.721 208.598 423.539 208.471V208.471Z" fill="#464353"/>
<path d="M436.478 189.766L436.757 189.958L423.865 208.663L423.586 208.471C423.421 208.358 423.308 208.183 423.271 207.986C423.235 207.789 423.279 207.586 423.392 207.421L435.418 189.974C435.473 189.89 435.544 189.817 435.628 189.761C435.712 189.705 435.805 189.666 435.904 189.647C436.003 189.627 436.105 189.628 436.203 189.649C436.302 189.669 436.395 189.709 436.478 189.766V189.766Z" fill="#9F9EFF"/>
<path d="M435.126 192.383L435.072 192.346C435.038 192.323 434.992 192.332 434.969 192.365L434.002 193.769C433.979 193.803 433.987 193.849 434.021 193.872L434.074 193.909C434.108 193.932 434.154 193.923 434.177 193.89L435.145 192.486C435.168 192.452 435.159 192.406 435.126 192.383Z" fill="#464353"/>
<path opacity="0.1" d="M412.036 164.254C411.849 163.348 411.107 162.684 410.595 161.912C409.319 159.99 409.519 157.448 410.113 155.219C410.332 154.61 410.425 153.964 410.387 153.319C410.302 152.911 410.133 152.525 409.891 152.186C409.648 151.847 409.339 151.562 408.98 151.349C407.413 150.321 405.404 150.308 403.646 149.657C401.089 148.712 398.776 146.382 396.111 146.946C394.652 147.254 393.532 148.382 392.274 149.176C390.882 150.052 389.282 150.542 387.638 150.594C386.258 150.638 384.864 150.369 383.506 150.594C383.262 150.638 383.022 150.703 382.789 150.79C381.634 150.397 380.42 150.203 379.2 150.217C378.002 150.189 376.824 150.518 375.814 151.163C373.978 152.464 373.488 154.958 373.518 157.201C373.548 159.444 373.926 161.756 373.236 163.89C372.368 166.549 369.972 168.575 369.486 171.325C369.156 173.195 369.772 175.082 370.323 176.899C371.903 182.105 372.949 187.883 370.853 192.919C370.319 194.195 369.52 195.457 368.249 196.042L372.702 195.778C372.75 196.092 372.736 196.413 372.66 196.722C372.583 197.031 372.447 197.322 372.258 197.578C372.07 197.834 371.832 198.051 371.56 198.215C371.288 198.38 370.985 198.489 370.671 198.537C371.794 198.466 372.898 198.213 373.939 197.786C374.459 197.57 374.918 197.23 375.278 196.796C375.637 196.362 375.885 195.847 376.001 195.296C376.088 194.693 375.957 194.064 376.127 193.483C376.417 192.481 377.429 191.93 378.275 191.288C380.446 189.596 381.479 186.746 381.561 183.992C381.644 181.237 380.914 178.53 380.133 175.884C379.352 173.238 378.514 170.579 378.397 167.824C378.346 166.817 378.44 165.808 378.675 164.827C378.835 165.126 379.013 165.421 379.2 165.695C380.276 167.334 381.535 168.892 382.195 170.74C382.428 171.615 382.742 172.468 383.132 173.286C383.592 174.067 384.434 174.713 385.342 174.587C386.249 174.461 386.909 173.481 387.208 172.561C387.508 171.642 387.642 170.64 388.193 169.855C389.252 168.371 391.371 168.237 393.194 168.293C397.035 168.414 402.335 168.996 405.347 166.046C405.92 165.486 406.215 164.632 407.084 164.84C407.882 165.026 408.329 166.328 409.184 166.619C410.582 167.1 412.353 165.799 412.036 164.254Z" fill="black"/>
<path d="M412.036 163.764C411.849 162.858 411.107 162.19 410.595 161.422C409.319 159.496 409.519 156.954 410.113 154.728C410.332 154.12 410.425 153.474 410.387 152.828C410.302 152.421 410.133 152.035 409.891 151.696C409.648 151.357 409.339 151.072 408.98 150.859C407.413 149.831 405.404 149.814 403.646 149.167C401.089 148.222 398.776 145.892 396.111 146.456C394.652 146.764 393.532 147.892 392.274 148.686C390.881 149.56 389.281 150.05 387.638 150.104C386.258 150.148 384.864 149.879 383.506 150.104C383.262 150.148 383.022 150.213 382.789 150.299C381.634 149.906 380.42 149.713 379.2 149.727C378.003 149.7 376.825 150.028 375.814 150.668C373.978 151.969 373.488 154.468 373.518 156.711C373.548 158.954 373.926 161.266 373.236 163.4C372.368 166.059 369.972 168.085 369.486 170.835C369.156 172.705 369.772 174.592 370.323 176.409C371.903 181.615 372.949 187.393 370.853 192.425C370.319 193.704 369.52 194.967 368.249 195.552L372.702 195.288C372.75 195.602 372.736 195.923 372.659 196.231C372.583 196.54 372.447 196.83 372.258 197.086C372.07 197.342 371.832 197.558 371.56 197.722C371.287 197.886 370.985 197.995 370.671 198.042C371.794 197.975 372.898 197.723 373.939 197.296C374.459 197.079 374.918 196.739 375.278 196.306C375.637 195.872 375.885 195.357 376.001 194.806C376.088 194.203 375.957 193.574 376.127 192.993C376.417 191.991 377.429 191.44 378.275 190.798C380.446 189.106 381.479 186.256 381.561 183.502C381.644 180.747 380.914 178.036 380.133 175.394C379.352 172.752 378.514 170.089 378.397 167.334C378.346 166.327 378.44 165.318 378.675 164.337C378.835 164.636 379.013 164.931 379.2 165.204C380.276 166.844 381.535 168.401 382.195 170.249C382.427 171.124 382.741 171.975 383.132 172.791C383.592 173.572 384.434 174.223 385.342 174.093C386.249 173.963 386.909 172.991 387.208 172.071C387.508 171.152 387.642 170.15 388.193 169.364C389.252 167.881 391.371 167.746 393.194 167.803C397.035 167.924 402.335 168.506 405.347 165.556C405.92 164.996 406.215 164.142 407.084 164.35C407.882 164.536 408.329 165.838 409.184 166.128C410.582 166.61 412.353 165.309 412.036 163.764Z" fill="#464353"/>
<g opacity="0.1">
<path opacity="0.1" d="M373.531 155.856C373.531 156.145 373.531 156.435 373.531 156.724C373.531 157.661 373.609 158.611 373.644 159.552C373.683 158.337 373.574 157.093 373.531 155.856Z" fill="black"/>
<path opacity="0.1" d="M372.012 185.358C372.129 181.888 371.339 178.309 370.323 174.947C369.915 173.743 369.625 172.503 369.455 171.243C369.269 172.978 369.829 174.713 370.323 176.422C371.264 179.317 371.832 182.32 372.012 185.358V185.358Z" fill="black"/>
<path opacity="0.1" d="M409.679 157.175C409.751 156.348 409.896 155.529 410.113 154.728C410.332 154.12 410.426 153.474 410.387 152.828C410.369 152.715 410.341 152.603 410.304 152.494C410.252 152.75 410.183 153.002 410.113 153.253C409.745 154.526 409.598 155.853 409.679 157.175Z" fill="black"/>
<path opacity="0.1" d="M372.715 193.834L370.024 193.991C369.589 194.665 368.98 195.211 368.262 195.57L372.463 195.322C372.716 194.87 372.805 194.344 372.715 193.834V193.834Z" fill="black"/>
<path opacity="0.1" d="M411.919 163.382C411.689 163.886 411.287 164.292 410.785 164.526C410.283 164.761 409.714 164.809 409.18 164.662C408.312 164.371 407.878 163.07 407.079 162.884C406.211 162.675 405.916 163.534 405.343 164.094C402.335 167.039 397.035 166.458 393.19 166.337C391.367 166.28 389.248 166.415 388.189 167.898C387.625 168.683 387.499 169.69 387.204 170.609C386.909 171.529 386.292 172.483 385.338 172.631C384.383 172.778 383.601 172.123 383.128 171.329C382.738 170.513 382.424 169.662 382.191 168.787C381.531 166.939 380.272 165.378 379.196 163.738C379.009 163.461 378.831 163.166 378.67 162.871C378.435 163.853 378.342 164.864 378.393 165.872C378.393 165.942 378.393 166.016 378.393 166.085C378.427 165.5 378.514 164.919 378.653 164.35C378.814 164.649 378.992 164.944 379.178 165.217C380.255 166.857 381.513 168.414 382.173 170.262C382.405 171.137 382.719 171.988 383.111 172.804C383.571 173.585 384.413 174.236 385.32 174.106C386.227 173.976 386.887 173.004 387.187 172.084C387.486 171.165 387.621 170.163 388.172 169.377C389.231 167.894 391.349 167.759 393.172 167.816C397.014 167.937 402.313 168.518 405.326 165.569C405.899 165.009 406.194 164.155 407.062 164.363C407.861 164.549 408.308 165.851 409.163 166.141C410.565 166.614 412.336 165.313 412.019 163.768C411.994 163.638 411.961 163.509 411.919 163.382Z" fill="black"/>
<path opacity="0.1" d="M378.288 189.34C377.464 189.982 376.431 190.533 376.14 191.535C375.97 192.121 376.101 192.746 376.014 193.349C375.899 193.9 375.651 194.416 375.292 194.851C374.932 195.285 374.473 195.626 373.952 195.843C373.541 196.031 373.112 196.177 372.672 196.277C372.551 196.736 372.299 197.149 371.945 197.466C371.592 197.783 371.153 197.989 370.684 198.06C371.807 197.992 372.911 197.74 373.952 197.313C374.472 197.097 374.931 196.757 375.291 196.323C375.65 195.889 375.898 195.375 376.014 194.823C376.101 194.22 375.97 193.591 376.14 193.01C376.431 192.008 377.442 191.457 378.288 190.815C380.459 189.123 381.492 186.273 381.574 183.519C381.574 183.107 381.574 182.699 381.574 182.291C381.418 184.963 380.389 187.701 378.288 189.34Z" fill="black"/>
</g>
<path d="M197.712 355.187H197.812C197.812 355.187 181.874 311.99 177.412 306.121C177.412 306.121 172.737 303.392 172.95 298.781L167.216 271.288C167.216 271.288 167.302 271.205 167.446 271.049L167.567 270.915C167.611 270.867 167.658 270.815 167.706 270.754C168.472 269.866 169.113 268.878 169.612 267.817C169.642 267.748 169.677 267.683 169.707 267.613C169.92 267.132 170.099 266.636 170.241 266.13C170.642 266.269 171.081 266.246 171.465 266.065C171.465 266.065 171.465 265.917 171.465 265.653C171.465 265.653 171.409 264.026 171.404 261.484C171.404 260.773 171.404 260 171.404 259.181C171.59 258.521 171.742 257.852 171.86 257.176L171.626 257.068C171.626 257.033 171.626 257.003 171.647 256.968L171.452 256.877C171.608 250.847 172.129 243.143 173.622 237.895C173.674 237.708 173.726 237.526 173.783 237.344C175.554 231.613 175.593 224.616 176.049 218.691C176.407 219.433 176.714 220.198 176.969 220.981C177.194 220.732 177.454 220.517 177.741 220.343L179.521 234.402V250.965C179.521 250.965 176.543 272.355 185.893 268.373C195.243 264.39 188.445 249.72 188.445 249.72C188.445 249.72 188.445 241.543 189.721 237.348C190.559 234.589 190.017 225.636 189.548 219.871C190.442 220.031 190.993 220.157 190.993 220.157C191.201 219.316 191.294 218.451 191.271 217.584C191.462 207.92 179.382 192.338 174.456 186.395C173.046 184.272 171.085 182.572 168.783 181.476L159.333 176.96C159.333 176.96 154.884 175.854 153.148 172.47C153.148 172.414 153.117 172.353 153.104 172.293C153.3 172.206 153.495 172.115 153.686 172.015C155.124 171.33 156.387 170.327 157.38 169.082C159.394 166.558 160.353 163.396 161.286 160.316C162.367 156.698 163.457 152.998 163.313 149.224C163.17 145.45 161.577 141.528 158.317 139.524C155.544 137.815 151.681 137.49 149.962 134.752C149.497 134.015 149.215 133.139 148.595 132.54C148.6 132.414 148.558 132.29 148.478 132.191C148.398 132.093 148.285 132.028 148.161 132.007L143.343 131.078C143.207 131.053 143.068 131.081 142.953 131.157C142.839 131.233 142.759 131.351 142.731 131.486V131.551C138.479 131.668 134.306 132.714 130.503 134.618C129.155 135.266 127.86 136.02 126.631 136.874C124.895 138.097 123.159 139.711 122.916 141.81C122.79 142.856 123.046 143.927 122.829 144.951C122.256 147.692 118.536 149.475 119.079 152.221C119.443 154.086 121.583 154.889 123.584 154.893C123.214 156.199 123.025 157.549 123.024 158.906C123.042 162.349 124.248 165.68 126.44 168.337C128.631 170.993 131.674 172.812 135.052 173.485C136.509 175.507 137.786 177.652 138.867 179.897C136.419 182.192 131.293 187.519 134.436 189.31L127.925 205.248L128.559 221.684L125.802 224.117L126.406 224.863C123.32 228.412 116.166 236.172 110.94 238.237C110.191 238.535 109.466 238.889 108.77 239.296C107.812 239.894 106.748 240.305 105.636 240.506C105.15 240.555 104.67 240.647 104.199 240.779L102.954 238.224C102.736 237.781 102.353 237.441 101.886 237.278C101.42 237.116 100.908 237.144 100.462 237.357L99.6982 237.721L97.8796 238.589L97.1243 238.949L96.547 239.222C96.3276 239.325 96.1308 239.471 95.9682 239.652C95.8056 239.832 95.6803 240.042 95.5996 240.271C95.5189 240.499 95.4843 240.742 95.4979 240.984C95.5115 241.226 95.573 241.463 95.6789 241.681L97.1894 244.774C95.0408 246.644 93.9904 248.878 96.916 250.952C98.0516 251.77 99.4229 252.196 100.822 252.166L101.743 254.044C101.959 254.488 102.342 254.827 102.808 254.99C103.273 255.152 103.785 255.124 104.23 254.912L105.562 254.279L108.167 253.051C108.386 252.948 108.583 252.803 108.746 252.624C108.909 252.444 109.035 252.234 109.116 252.005C109.196 251.777 109.231 251.534 109.217 251.292C109.203 251.05 109.141 250.814 109.035 250.596L108.28 249.047C109.967 247.754 111.515 246.289 112.898 244.675C112.898 244.675 116.774 242.276 119.057 241.742C120.572 241.387 125.889 237.947 129.162 235.769L130.095 259.983C129.886 260.297 129.644 260.587 129.375 260.851L130.108 260.339V260.517C130 260.638 129.896 260.751 129.791 260.851L130.108 260.625V260.916C130.007 261.041 129.897 261.158 129.778 261.267L130.113 261.033L130.208 263.549L131.81 260.946L131.91 263.549L132.283 262.937C127.795 270.463 121.948 281.542 118.827 292.695C118.827 292.695 113.944 301.08 114.578 309.678L105.593 352.233L105.766 352.298C102.854 354.367 96.7336 358.163 90.722 358.314C90.722 358.314 76.2723 357.881 80.3046 361.039C84.337 364.197 120.238 368.799 120.238 368.799L121.618 358.197L121.939 358.314C121.939 358.314 121.939 358.254 121.918 358.15L122.352 358.314C122.352 358.314 121.484 353.07 124.687 350.138C127.89 347.205 135.313 317.425 134.67 312.832C134.67 312.832 140.374 298.764 147.514 287.546L155.917 308.849L165.267 324.787C165.267 324.787 177.702 352.072 177.303 358.154C174.699 361.303 170.02 366.235 166.543 366.092C166.543 366.092 152.306 368.821 162.081 371.337C171.856 373.853 200.538 364.396 200.538 364.396L197.712 355.187ZM135.464 257.623L135.551 257.576C135.117 258.248 134.635 258.998 134.123 259.818L135.464 257.623Z" fill="url(#paint1_linear)"/>
<path d="M129.297 260.838C128.945 261.085 128.754 261.228 128.754 261.228C128.953 261.125 129.136 260.994 129.297 260.838Z" fill="url(#paint2_linear)"/>
<path d="M129.722 261.254L129.179 261.649C129.379 261.545 129.562 261.411 129.722 261.254V261.254Z" fill="url(#paint3_linear)"/>
<path d="M129.722 260.838C129.37 261.085 129.179 261.228 129.179 261.228C129.379 261.125 129.561 260.994 129.722 260.838Z" fill="url(#paint4_linear)"/>
<path d="M178.341 355.794C178.341 355.794 170.883 366.352 165.914 366.144C165.914 366.144 152.024 368.834 161.573 371.319C171.122 373.805 199.071 364.487 199.071 364.487L195.746 353.642L178.341 355.794Z" fill="#333333"/>
<path d="M144.988 282.505L155.548 309.626L164.664 325.359C164.664 325.359 177.199 353.204 176.383 358.588L196.35 355.378C196.35 355.378 180.815 312.732 176.466 306.936C176.466 306.936 171.908 304.242 172.125 299.688L166.534 272.589C166.534 272.589 171.973 267.344 168.935 260.772C168.773 260.424 168.593 260.083 168.396 259.753C164.256 252.717 148.512 256.647 148.512 256.647L144.988 282.505Z" fill="#535461"/>
<path opacity="0.03" d="M144.988 282.505L155.548 309.626L164.664 325.359C164.664 325.359 177.199 353.204 176.383 358.588L196.35 355.378C196.35 355.378 180.815 312.732 176.466 306.936C176.466 306.936 171.908 304.242 172.125 299.688L166.534 272.589C166.534 272.589 171.973 267.344 168.935 260.772C168.773 260.424 168.593 260.083 168.396 259.753C164.256 252.717 148.512 256.647 148.512 256.647L144.988 282.505Z" fill="black"/>
<g opacity="0.1">
<path opacity="0.1" d="M176.479 306.936C176.479 306.936 171.921 304.243 172.138 299.688L166.534 272.589C166.534 272.589 171.973 267.344 168.935 260.773C168.773 260.424 168.594 260.083 168.396 259.753C166.387 256.339 161.651 255.506 157.302 255.554C161.473 255.593 165.862 256.504 167.776 259.753C167.973 260.082 168.151 260.423 168.31 260.773C171.348 267.344 165.914 272.589 165.914 272.589L171.504 299.709C171.3 304.264 175.845 306.958 175.845 306.958C180.185 312.754 195.729 355.399 195.729 355.399L176.383 358.479C176.383 358.51 176.383 358.549 176.383 358.579L196.35 355.369C196.35 355.369 180.828 312.732 176.479 306.936Z" fill="black"/>
</g>
<path d="M108.323 351.239C108.323 351.239 100.037 358.275 91.9589 358.484C91.9589 358.484 77.8738 358.05 81.8064 361.177C85.7389 364.305 120.754 368.834 120.754 368.834L122.312 356.744L108.323 351.239Z" fill="#333333"/>
<g opacity="0.1">
<path opacity="0.1" d="M138.776 254.973C138.776 254.973 125.104 274.224 119.717 293.684C119.717 293.684 114.942 301.965 115.576 310.454L106.873 352.48L122.825 358.479C122.825 358.479 121.996 353.304 125.104 350.406C128.211 347.509 135.46 318.111 134.84 313.556C134.84 313.556 144.784 288.713 154.728 278.983C164.672 269.253 169.616 267.006 171.079 258.595C171.079 258.608 147.683 247.312 138.776 254.973Z" fill="black"/>
</g>
<path d="M138.36 254.973C138.36 254.973 124.687 274.224 119.305 293.684C119.305 293.684 114.53 301.965 115.159 310.454L106.478 352.48L122.408 358.479C122.408 358.479 121.583 353.304 124.687 350.406C127.79 347.509 135.048 318.111 134.423 313.556C134.423 313.556 144.367 288.713 154.311 278.983C164.255 269.253 169.204 267.006 170.666 258.595C170.666 258.608 147.266 247.312 138.36 254.973Z" fill="#535461"/>
<g opacity="0.1">
<path opacity="0.1" d="M147.193 252.105C157.462 252.227 170.25 258.404 170.25 258.404C168.787 266.802 163.839 269.049 153.899 278.792C143.959 288.535 134.01 313.365 134.01 313.365C134.631 317.92 127.382 347.318 124.275 350.215C121.57 352.74 121.848 356.987 121.965 358.045L122.616 358.288C122.616 358.288 121.787 353.113 124.895 350.215C128.003 347.318 135.252 317.92 134.631 313.365C134.631 313.365 144.575 288.522 154.52 278.792C164.464 269.062 169.412 266.815 170.87 258.404C170.87 258.404 157.558 251.975 147.193 252.105Z" fill="black"/>
</g>
<path d="M128.203 224.95C128.203 224.95 118.315 237.257 111.639 239.929C110.906 240.223 110.195 240.571 109.512 240.97C108.585 241.559 107.554 241.965 106.474 242.167C105.675 242.242 104.893 242.447 104.16 242.775C100.688 244.371 92.6884 248.691 97.9709 252.487C104.599 257.259 113.506 246.275 113.506 246.275C113.506 246.275 117.286 243.907 119.513 243.378C121.74 242.848 131.94 235.717 131.94 235.717L128.203 224.95Z" fill="#ECB4B6"/>
<path d="M130.074 222.469L126.137 225.987L131.936 233.231L130.074 222.469Z" fill="#5843E4"/>
<g opacity="0.1">
<path opacity="0.1" d="M130.074 222.469L126.137 225.987L131.936 233.231L130.074 222.469Z" fill="black"/>
</g>
<path d="M140.048 181.268C140.048 181.268 130.621 189.345 134.57 191.622L128.203 207.356L130.395 264.906L139.384 250.001L133.242 217.706C133.242 217.706 131.506 198.454 136.532 193.9L141.355 184.356L140.048 181.268Z" fill="#5843E4"/>
<g opacity="0.1">
<path opacity="0.1" d="M141.294 178.383C141.294 178.383 131.866 186.46 135.812 188.737L129.453 204.484L131.645 262.035L140.634 247.13L134.497 214.821C134.497 214.821 132.76 195.57 137.782 191.015L142.609 181.472L141.294 178.383Z" fill="black"/>
</g>
<path d="M132.769 172.783C132.769 172.783 140.434 182.096 140.226 187.479C140.018 192.863 154.728 178.166 154.728 178.166C154.728 178.166 149.133 171.334 150.583 164.085C152.032 156.837 132.769 172.783 132.769 172.783Z" fill="#ECB4B6"/>
<path d="M176.479 219.571L178.553 236.151V252.505C178.553 252.505 175.654 273.621 184.769 269.687C193.884 265.752 187.234 251.247 187.234 251.247C187.234 251.247 187.234 243.169 188.48 239.031C189.726 234.893 187.859 216.669 187.859 216.669L176.479 219.571Z" fill="#ECB4B6"/>
<path d="M148.095 180.443C148.095 180.443 142.527 185.831 139.605 183.961L135.629 193.839C133.199 199.88 132.096 206.373 132.396 212.878L133.802 250.21L140.018 249.381L142.092 213.98L145.2 192.451L148.095 180.443Z" fill="#F2F2F2"/>
<g opacity="0.1">
<path opacity="0.1" d="M152.757 174.748C152.757 174.748 145.404 179.819 143.334 184.17C143.334 184.17 143.126 188.941 141.468 191.002C139.809 193.062 138.156 203.421 137.739 215.845C137.322 228.269 135.46 244.826 135.46 244.826C135.46 244.826 132.352 260.976 129.041 262.612C129.041 262.612 144.367 251.021 151.824 254.955C159.281 258.89 167.776 268.403 170.263 266.963C170.263 266.963 169.664 248.817 172.381 239.139C172.433 238.957 172.485 238.775 172.542 238.597C175.441 229.075 173.579 216.04 176.882 210.444C176.882 210.444 176.882 200.324 174.972 192.767C174.478 190.838 173.567 189.04 172.303 187.499C171.04 185.958 169.455 184.712 167.658 183.849L158.457 179.407C158.457 179.407 153.586 178.682 152.757 174.748Z" fill="black"/>
</g>
<g opacity="0.1">
<path opacity="0.1" d="M152.757 174.748C152.757 174.748 145.812 180.235 143.746 184.582C143.746 184.582 143.538 189.353 141.884 191.414C140.23 193.474 138.568 203.838 138.156 216.257C137.743 228.676 135.877 245.26 135.877 245.26C135.877 245.26 132.769 261.406 129.453 263.046C129.453 263.046 144.784 251.45 152.241 255.385C159.698 259.319 168.192 268.832 170.675 267.392C170.675 267.392 170.081 249.251 172.798 239.573C172.85 239.387 172.902 239.209 172.954 239.031C175.858 229.488 173.991 216.474 177.295 210.874C177.295 210.874 177.295 200.753 175.38 193.201C174.887 191.271 173.977 189.472 172.715 187.93C171.452 186.389 169.867 185.142 168.071 184.278L158.856 179.819C158.856 179.819 153.586 178.682 152.757 174.748Z" fill="black"/>
</g>
<path d="M152.653 174.644C152.653 174.644 145.817 179.819 143.746 184.187C143.746 184.187 143.538 188.959 141.884 191.019C140.23 193.08 138.568 203.439 138.156 215.862C137.743 228.286 135.877 244.826 135.877 244.826C135.877 244.826 132.769 260.976 129.453 262.612C129.453 262.612 144.784 251.021 152.241 254.955C159.698 258.89 168.192 268.403 170.675 266.963C170.675 266.963 170.081 248.817 172.798 239.139L172.954 238.597C175.858 229.076 173.991 216.04 177.295 210.444C177.295 210.444 177.295 200.324 175.38 192.767C174.887 190.838 173.977 189.039 172.715 187.499C171.452 185.958 169.867 184.712 168.071 183.849L158.856 179.389C158.856 179.389 154.207 178.266 152.653 174.644Z" fill="#5843E4"/>
<g opacity="0.1">
<path opacity="0.1" d="M171.608 186.755C171.608 186.755 192.634 210.665 189.734 222.052C189.734 222.052 178.961 219.571 176.062 222.881C176.062 222.881 173.783 215.22 166.946 210.874C160.11 206.527 153.812 178.682 171.608 186.755Z" fill="black"/>
</g>
<path d="M171.608 186.343C171.608 186.343 192.634 210.253 189.734 221.64C189.734 221.64 178.961 219.155 176.062 222.469C176.062 222.469 173.783 214.808 166.946 210.462C160.11 206.115 153.812 178.266 171.608 186.343Z" fill="#5843E4"/>
<g opacity="0.1">
<path opacity="0.1" d="M151.099 168.744C150.774 167.074 151.047 166.948 151.412 165.122C152.861 157.878 133.615 173.798 133.615 173.798C133.615 173.798 134.688 175.099 136.016 177.016C136.997 177.219 137.996 177.321 138.998 177.32C144.263 177.337 148.504 172.895 151.099 168.744Z" fill="black"/>
</g>
<path d="M138.151 176.296C146.273 176.296 152.857 169.716 152.857 161.6C152.857 153.483 146.273 146.903 138.151 146.903C130.03 146.903 123.446 153.483 123.446 161.6C123.446 169.716 130.03 176.296 138.151 176.296Z" fill="#ECB4B6"/>
<g opacity="0.1">
<path opacity="0.1" d="M124.939 157.578C122.768 157.869 120.012 157.145 119.595 155.002C119.07 152.295 122.694 150.529 123.254 147.827C123.467 146.812 123.215 145.753 123.337 144.725C123.58 142.652 125.255 141.055 126.961 139.854C132.365 136.064 138.939 134.313 145.513 134.913C146.333 134.922 147.132 135.174 147.809 135.637C148.525 136.227 148.799 137.177 149.285 137.962C150.965 140.674 154.728 140.999 157.432 142.682C160.596 144.656 162.159 148.53 162.302 152.256C162.445 155.982 161.382 159.63 160.327 163.209C159.433 166.245 158.495 169.369 156.533 171.859C154.572 174.349 151.325 176.093 148.23 175.329C149.645 174.31 148.621 171.95 147.088 171.121C145.556 170.293 143.659 170.15 142.353 169.009C141.046 167.868 140.651 165.994 140.222 164.293C139.683 162.124 138.919 159.956 137.34 158.398C134.279 155.336 128.715 157.071 124.939 157.578Z" fill="black"/>
</g>
<path d="M125.355 157.37C123.185 157.665 120.429 156.936 120.008 154.798C119.482 152.087 123.107 150.325 123.671 147.619C123.879 146.603 123.628 145.549 123.749 144.517C123.992 142.443 125.672 140.851 127.378 139.645C132.781 135.857 139.353 134.107 145.925 134.705C146.746 134.715 147.545 134.969 148.221 135.433C148.937 136.019 149.215 136.969 149.701 137.754C151.377 140.465 155.144 140.791 157.849 142.474C161.009 144.448 162.576 148.326 162.714 152.048C162.853 155.769 161.794 159.422 160.744 163.001C159.845 166.037 158.912 169.165 156.946 171.655C154.98 174.145 151.737 175.884 148.647 175.125C150.057 174.11 149.033 171.746 147.505 170.917C145.977 170.089 144.076 169.95 142.765 168.805C141.454 167.66 141.064 165.79 140.638 164.09C140.1 161.942 139.336 159.752 137.756 158.199C134.679 155.127 129.127 156.863 125.355 157.37Z" fill="#464353"/>
<path d="M147.032 142.452L148.365 135.633C148.377 135.567 148.377 135.5 148.363 135.435C148.35 135.369 148.324 135.307 148.286 135.252C148.249 135.197 148.201 135.15 148.145 135.113C148.089 135.076 148.027 135.051 147.961 135.039L143.265 134.123C143.199 134.11 143.132 134.11 143.067 134.123C143.001 134.136 142.939 134.162 142.884 134.199C142.829 134.236 142.781 134.284 142.744 134.339C142.708 134.395 142.682 134.457 142.67 134.522L141.337 141.337L136.784 158.168L145.131 159.804L147.032 142.452Z" fill="#5843E4"/>
<g opacity="0.1">
<path opacity="0.1" d="M123.511 148.161C123.817 147.696 124.037 147.18 124.162 146.638C124.37 145.623 124.118 144.565 124.24 143.537C124.285 143.17 124.374 142.811 124.505 142.465C124.103 143.084 123.845 143.785 123.749 144.517C123.628 145.549 123.88 146.603 123.667 147.619C123.631 147.803 123.578 147.985 123.511 148.161V148.161Z" fill="black"/>
<path opacity="0.1" d="M157.436 170.67C155.505 173.125 152.314 174.843 149.276 174.179C149.193 174.565 148.968 174.905 148.647 175.134C151.729 175.884 154.984 174.145 156.946 171.663C157.683 170.712 158.303 169.677 158.795 168.579C158.406 169.316 157.952 170.015 157.436 170.67V170.67Z" fill="black"/>
<path opacity="0.1" d="M149.298 174.01C150.457 172.934 149.458 170.739 147.996 169.946C146.463 169.117 144.567 168.974 143.256 167.833C141.945 166.692 141.554 164.818 141.129 163.113C140.591 160.966 139.827 158.776 138.247 157.223C135.169 154.147 129.618 155.882 125.846 156.39C123.676 156.68 120.919 155.956 120.503 153.813C120.404 153.307 120.446 152.783 120.624 152.299C120.362 152.655 120.173 153.058 120.067 153.487C119.961 153.916 119.941 154.361 120.008 154.798C120.442 156.941 123.189 157.665 125.355 157.37C129.127 156.863 134.679 155.127 137.756 158.207C139.319 159.773 140.1 161.951 140.638 164.098C141.072 165.799 141.441 167.66 142.765 168.813C144.089 169.967 145.973 170.115 147.505 170.926C148.603 171.516 149.432 172.904 149.298 174.01Z" fill="black"/>
</g>
<g opacity="0.1">
<path opacity="0.1" d="M140.122 169.156C144.125 169.156 147.37 165.913 147.37 161.912C147.37 157.911 144.125 154.668 140.122 154.668C136.118 154.668 132.873 157.911 132.873 161.912C132.873 165.913 136.118 169.156 140.122 169.156Z" fill="black"/>
</g>
<path d="M140.122 169.364C144.125 169.364 147.37 166.121 147.37 162.12C147.37 158.119 144.125 154.876 140.122 154.876C136.118 154.876 132.873 158.119 132.873 162.12C132.873 166.121 136.118 169.364 140.122 169.364Z" fill="#5843E4"/>
<path d="M140.122 166.866C142.745 166.866 144.871 164.741 144.871 162.12C144.871 159.499 142.745 157.375 140.122 157.375C137.5 157.375 135.374 159.499 135.374 162.12C135.374 164.741 137.5 166.866 140.122 166.866Z" fill="#333333"/>
<path d="M140.122 163.569C140.923 163.569 141.572 162.92 141.572 162.12C141.572 161.32 140.923 160.671 140.122 160.671C139.321 160.671 138.672 161.32 138.672 162.12C138.672 162.92 139.321 163.569 140.122 163.569Z" fill="#5843E4"/>
<path opacity="0.05" d="M147.153 141.847L141.462 140.736L141.422 140.94L147.113 142.051L147.153 141.847Z" fill="black"/>
<path d="M99.8222 239.846L98.4342 240.515C97.0651 241.175 96.4904 242.819 97.1505 244.187L102.227 254.71C102.887 256.078 104.532 256.652 105.901 255.992L107.289 255.324C108.658 254.664 109.233 253.02 108.573 251.652L103.496 241.129C102.836 239.761 101.191 239.187 99.8222 239.846Z" fill="#CBDAE3"/>
<path d="M101.734 238.925L96.5222 241.436C96.2091 241.587 96.0777 241.963 96.2287 242.276L103.149 256.62C103.3 256.933 103.676 257.065 103.989 256.914L109.201 254.402C109.514 254.252 109.645 253.876 109.494 253.563L102.574 239.218C102.423 238.905 102.047 238.774 101.734 238.925Z" fill="#535461"/>
<path d="M102.4 238.605L97.1532 241.133C96.7991 241.304 96.6504 241.729 96.8211 242.083L103.67 256.279C103.84 256.633 104.266 256.781 104.62 256.611L109.867 254.083C110.221 253.912 110.37 253.487 110.199 253.133L103.351 238.937C103.18 238.583 102.754 238.434 102.4 238.605Z" fill="#5843E4"/>
<path d="M102.785 239.799L97.8508 242.176L103.519 253.926L108.453 251.548L102.785 239.799Z" fill="#F2F2F2"/>
<path d="M107.071 254.745C107.379 254.597 107.469 254.142 107.27 253.73C107.071 253.317 106.659 253.104 106.351 253.253C106.042 253.401 105.953 253.856 106.152 254.268C106.35 254.681 106.762 254.894 107.071 254.745Z" fill="#F2F2F2"/>
<g opacity="0.1">
<path opacity="0.1" d="M144.87 241.742C147.785 241.775 150.669 242.342 153.378 243.417C157.718 245.178 162.315 243.417 162.315 243.417C162.315 243.417 149.224 239.621 144.87 241.742Z" fill="black"/>
</g>
<path d="M294.286 319.972C294.286 319.972 296.985 323.498 293.04 328.825C289.094 334.152 285.843 338.646 287.158 341.965C287.158 341.965 293.109 332.074 297.953 331.936C302.798 331.797 299.616 325.919 294.286 319.972Z" fill="#5843E4"/>
<path opacity="0.1" d="M294.286 319.972C294.521 320.312 294.707 320.685 294.837 321.078C299.564 326.626 302.086 331.805 297.541 331.923C293.309 332.044 288.23 339.609 287.015 341.518C287.054 341.665 287.102 341.81 287.158 341.952C287.158 341.952 293.109 332.061 297.953 331.923C302.797 331.784 299.616 325.919 294.286 319.972Z" fill="black"/>
<path d="M299.303 324.466C299.303 325.711 299.164 326.717 298.995 326.717C298.826 326.717 298.683 325.711 298.683 324.466C298.683 323.221 298.856 323.811 299.03 323.811C299.203 323.811 299.303 323.225 299.303 324.466Z" fill="#FFD037"/>
<path d="M301.026 325.945C299.937 326.539 298.986 326.899 298.904 326.748C298.821 326.596 299.637 325.993 300.727 325.399C301.816 324.804 301.391 325.238 301.474 325.399C301.556 325.559 302.116 325.355 301.026 325.945Z" fill="#FFD037"/>
<path d="M280.031 319.972C280.031 319.972 277.331 323.498 281.277 328.825C285.222 334.152 288.473 338.646 287.158 341.965C287.158 341.965 281.207 332.074 276.363 331.936C271.519 331.797 274.701 325.919 280.031 319.972Z" fill="#5843E4"/>
<path opacity="0.1" d="M280.031 319.972C279.795 320.312 279.61 320.685 279.48 321.078C274.753 326.626 272.235 331.805 276.78 331.923C281.012 332.044 286.086 339.609 287.301 341.518C287.262 341.665 287.214 341.81 287.158 341.952C287.158 341.952 281.207 332.061 276.363 331.923C271.519 331.784 274.701 325.919 280.031 319.972Z" fill="black"/>
<path d="M275.014 324.466C275.014 325.711 275.153 326.717 275.326 326.717C275.5 326.717 275.639 325.711 275.639 324.466C275.639 323.221 275.461 323.811 275.291 323.811C275.122 323.811 275.014 323.225 275.014 324.466Z" fill="#FFD037"/>
<path d="M273.29 325.945C274.384 326.539 275.335 326.899 275.417 326.748C275.5 326.596 274.679 325.993 273.59 325.399C272.5 324.804 272.93 325.238 272.848 325.399C272.765 325.559 272.201 325.355 273.29 325.945Z" fill="#FFD037"/>
<path d="M275.873 341.505C275.873 341.505 283.421 341.271 285.696 339.653C287.97 338.035 297.302 336.104 297.849 338.698C298.396 341.293 309.187 351.608 300.67 351.677C292.154 351.747 280.873 350.35 278.603 348.966C276.333 347.582 275.873 341.505 275.873 341.505Z" fill="#A8A8A8"/>
<path opacity="0.2" d="M300.84 350.771C292.319 350.84 281.042 349.448 278.772 348.064C277.036 347.014 276.355 343.236 276.125 341.496H275.873C275.873 341.496 276.35 347.569 278.62 348.958C280.89 350.346 292.167 351.738 300.688 351.669C303.145 351.647 303.995 350.775 303.948 349.478C303.609 350.268 302.667 350.758 300.84 350.771Z" fill="black"/>
<path d="M261.323 347.04C261.948 346.524 262.402 345.832 262.626 345.053C262.795 344.268 262.456 343.318 261.705 343.036C260.837 342.711 259.969 343.297 259.275 343.904C258.58 344.511 257.803 345.171 256.909 345.045C257.37 344.628 257.714 344.098 257.909 343.508C258.104 342.918 258.142 342.288 258.02 341.679C257.981 341.427 257.875 341.19 257.712 340.993C257.243 340.494 256.41 340.711 255.833 341.106C254.049 342.36 253.549 344.78 253.541 346.962C253.358 346.177 253.51 345.357 253.506 344.55C253.502 343.743 253.28 342.85 252.599 342.416C252.176 342.186 251.699 342.074 251.219 342.091C250.416 342.06 249.521 342.138 248.975 342.728C248.293 343.457 248.471 344.68 249.061 345.479C249.652 346.277 250.554 346.78 251.384 347.34C252.05 347.734 252.617 348.276 253.042 348.923C253.095 349.011 253.137 349.106 253.167 349.205H258.198C259.334 348.629 260.385 347.901 261.323 347.04V347.04Z" fill="#5843E4"/>
<path d="M227.224 344.225C227.224 344.225 222.397 327.858 228.127 315.812C230.558 310.772 231.287 305.081 230.206 299.592C229.673 296.99 228.904 294.442 227.91 291.979" stroke="#535461" stroke-width="2" stroke-miterlimit="10"/>
<path d="M231.508 284.366C231.508 286.37 227.871 292.174 227.871 292.174C227.871 292.174 224.238 286.357 224.238 284.366C224.27 283.424 224.668 282.532 225.346 281.877C226.024 281.223 226.93 280.857 227.873 280.857C228.816 280.857 229.722 281.223 230.4 281.877C231.078 282.532 231.476 283.424 231.508 284.366V284.366Z" fill="#5843E4"/>
<path d="M237.494 295.476C236.4 297.163 230.188 300.069 230.188 300.069C230.188 300.069 230.301 293.211 231.391 291.528C231.915 290.719 232.738 290.152 233.681 289.95C234.624 289.748 235.608 289.929 236.417 290.452C237.226 290.976 237.794 291.799 237.996 292.741C238.198 293.683 238.017 294.667 237.494 295.476V295.476Z" fill="#5843E4"/>
<path d="M237.229 314.463C235.436 315.369 228.604 314.745 228.604 314.745C228.604 314.745 232.164 308.88 233.956 307.977C234.382 307.763 234.846 307.634 235.322 307.598C235.798 307.563 236.276 307.622 236.73 307.771C237.183 307.92 237.602 308.157 237.964 308.468C238.326 308.779 238.622 309.159 238.837 309.585C239.052 310.01 239.181 310.474 239.216 310.95C239.252 311.426 239.193 311.904 239.044 312.356C238.895 312.809 238.657 313.229 238.346 313.59C238.035 313.951 237.655 314.248 237.229 314.463Z" fill="#5843E4"/>
<path d="M233.796 328.786C232.181 329.979 225.34 330.522 225.34 330.522C225.34 330.522 227.858 324.141 229.472 322.948C230.248 322.372 231.22 322.128 232.175 322.27C233.13 322.411 233.99 322.925 234.566 323.7C235.142 324.475 235.386 325.447 235.244 326.401C235.103 327.356 234.588 328.216 233.813 328.791L233.796 328.786Z" fill="#5843E4"/>
<path d="M222.558 300.46C223.994 301.857 230.705 303.306 230.705 303.306C230.705 303.306 229.06 296.647 227.623 295.25C227.282 294.911 226.878 294.643 226.433 294.462C225.988 294.28 225.511 294.189 225.031 294.192C224.55 294.196 224.075 294.295 223.633 294.484C223.191 294.673 222.79 294.947 222.455 295.292C222.12 295.636 221.857 296.044 221.68 296.49C221.504 296.937 221.418 297.415 221.427 297.895C221.437 298.375 221.542 298.849 221.736 299.289C221.93 299.728 222.209 300.125 222.558 300.456V300.46Z" fill="#5843E4"/>
<path d="M218.751 317.269C220.544 318.176 227.376 317.551 227.376 317.551C227.376 317.551 223.817 311.686 222.024 310.784C221.596 310.569 221.131 310.441 220.654 310.406C220.176 310.371 219.697 310.43 219.243 310.581C218.788 310.731 218.368 310.969 218.006 311.282C217.644 311.594 217.347 311.975 217.132 312.402C216.917 312.829 216.789 313.295 216.754 313.772C216.719 314.249 216.778 314.728 216.928 315.182C217.079 315.636 217.317 316.056 217.63 316.417C217.943 316.779 218.324 317.076 218.751 317.291V317.269Z" fill="#5843E4"/>
<path d="M217.293 334.092C218.907 335.285 225.748 335.827 225.748 335.827C225.748 335.827 223.231 329.446 221.616 328.253C221.232 327.968 220.796 327.761 220.333 327.645C219.869 327.529 219.387 327.505 218.915 327.574C218.442 327.644 217.987 327.806 217.577 328.051C217.167 328.296 216.809 328.62 216.524 329.003C216.239 329.387 216.033 329.822 215.916 330.286C215.8 330.749 215.776 331.23 215.845 331.703C215.915 332.175 216.077 332.63 216.323 333.039C216.568 333.449 216.892 333.807 217.275 334.092H217.293Z" fill="#5843E4"/>
<path d="M231.508 284.366C231.508 286.37 227.871 292.174 227.871 292.174C227.871 292.174 224.238 286.357 224.238 284.366C224.27 283.424 224.668 282.532 225.346 281.877C226.024 281.223 226.93 280.857 227.873 280.857C228.816 280.857 229.722 281.223 230.4 281.877C231.078 282.532 231.476 283.424 231.508 284.366V284.366Z" fill="#5843E4"/>
<path d="M237.494 295.476C236.4 297.163 230.188 300.069 230.188 300.069C230.188 300.069 230.301 293.211 231.391 291.528C231.915 290.719 232.738 290.152 233.681 289.95C234.624 289.748 235.608 289.929 236.417 290.452C237.226 290.976 237.794 291.799 237.996 292.741C238.198 293.683 238.017 294.667 237.494 295.476V295.476Z" fill="#5843E4"/>
<path d="M237.229 314.463C235.436 315.369 228.604 314.745 228.604 314.745C228.604 314.745 232.164 308.88 233.956 307.977C234.382 307.763 234.846 307.634 235.322 307.598C235.798 307.563 236.276 307.622 236.73 307.771C237.183 307.92 237.602 308.157 237.964 308.468C238.326 308.779 238.622 309.159 238.837 309.585C239.052 310.01 239.181 310.474 239.216 310.95C239.252 311.426 239.193 311.904 239.044 312.356C238.895 312.809 238.657 313.229 238.346 313.59C238.035 313.951 237.655 314.248 237.229 314.463Z" fill="#5843E4"/>
<path d="M233.796 328.786C232.181 329.979 225.34 330.522 225.34 330.522C225.34 330.522 227.858 324.141 229.472 322.948C230.248 322.372 231.22 322.128 232.175 322.27C233.13 322.411 233.99 322.925 234.566 323.7C235.142 324.475 235.386 325.447 235.244 326.401C235.103 327.356 234.588 328.216 233.813 328.791L233.796 328.786Z" fill="#5843E4"/>
<path d="M222.558 300.46C223.994 301.857 230.705 303.306 230.705 303.306C230.705 303.306 229.06 296.647 227.623 295.25C227.282 294.911 226.878 294.643 226.433 294.462C225.988 294.28 225.511 294.189 225.031 294.192C224.55 294.196 224.075 294.295 223.633 294.484C223.191 294.673 222.79 294.947 222.455 295.292C222.12 295.636 221.857 296.044 221.68 296.49C221.504 296.937 221.418 297.415 221.427 297.895C221.437 298.375 221.542 298.849 221.736 299.289C221.93 299.728 222.209 300.125 222.558 300.456V300.46Z" fill="#5843E4"/>
<path d="M218.751 317.269C220.544 318.176 227.376 317.551 227.376 317.551C227.376 317.551 223.817 311.686 222.024 310.784C221.596 310.569 221.131 310.441 220.654 310.406C220.176 310.371 219.697 310.43 219.243 310.581C218.788 310.731 218.368 310.969 218.006 311.282C217.644 311.594 217.347 311.975 217.132 312.402C216.917 312.829 216.789 313.295 216.754 313.772C216.719 314.249 216.778 314.728 216.928 315.182C217.079 315.636 217.317 316.056 217.63 316.417C217.943 316.779 218.324 317.076 218.751 317.291V317.269Z" fill="#5843E4"/>
<path d="M217.293 334.092C218.907 335.285 225.748 335.827 225.748 335.827C225.748 335.827 223.231 329.446 221.616 328.253C221.232 327.968 220.796 327.761 220.333 327.645C219.869 327.529 219.387 327.505 218.915 327.574C218.442 327.644 217.987 327.806 217.577 328.051C217.167 328.296 216.809 328.62 216.524 329.003C216.239 329.387 216.033 329.822 215.916 330.286C215.8 330.749 215.776 331.23 215.845 331.703C215.915 332.175 216.077 332.63 216.323 333.039C216.568 333.449 216.892 333.807 217.275 334.092H217.293Z" fill="#5843E4"/>
<path d="M215.821 343.193C215.821 343.193 221.694 342.026 223.261 340.473C224.828 338.92 231.877 336.2 232.658 338.139C233.44 340.078 243.232 346.689 236.565 347.856C229.898 349.023 220.904 349.409 218.946 348.632C216.989 347.856 215.821 343.193 215.821 343.193Z" fill="#A8A8A8"/>
<path opacity="0.2" d="M236.578 347.131C229.919 348.298 220.913 348.684 218.955 347.908C217.462 347.318 216.429 344.472 216.017 343.136L215.821 343.179C215.821 343.179 216.998 347.843 218.955 348.619C220.913 349.396 229.919 349.005 236.578 347.843C238.496 347.504 239.048 346.715 238.839 345.713C238.674 346.381 238.019 346.88 236.578 347.131Z" fill="black"/>
<defs>
<linearGradient id="paint0_linear" x1="386.683" y1="368.834" x2="386.683" y2="142.465" gradientUnits="userSpaceOnUse">
<stop stop-color="#808080" stop-opacity="0.25"/>
<stop offset="0.54" stop-color="#808080" stop-opacity="0.12"/>
<stop offset="1" stop-color="#808080" stop-opacity="0.1"/>
</linearGradient>
<linearGradient id="paint1_linear" x1="25722.1" y1="143623" x2="59430.4" y2="143623" gradientUnits="userSpaceOnUse">
<stop stop-color="#808080" stop-opacity="0.25"/>
<stop offset="0.54" stop-color="#808080" stop-opacity="0.12"/>
<stop offset="1" stop-color="#808080" stop-opacity="0.1"/>
</linearGradient>
<linearGradient id="paint2_linear" x1="305.237" y1="502.252" x2="305.915" y2="502.252" gradientUnits="userSpaceOnUse">
<stop stop-color="#808080" stop-opacity="0.25"/>
<stop offset="0.54" stop-color="#808080" stop-opacity="0.12"/>
<stop offset="1" stop-color="#808080" stop-opacity="0.1"/>
</linearGradient>
<linearGradient id="paint3_linear" x1="306.194" y1="505.731" x2="306.872" y2="505.731" gradientUnits="userSpaceOnUse">
<stop stop-color="#808080" stop-opacity="0.25"/>
<stop offset="0.54" stop-color="#808080" stop-opacity="0.12"/>
<stop offset="1" stop-color="#808080" stop-opacity="0.1"/>
</linearGradient>
<linearGradient id="paint4_linear" x1="306.194" y1="502.252" x2="306.872" y2="502.252" gradientUnits="userSpaceOnUse">
<stop stop-color="#808080" stop-opacity="0.25"/>
<stop offset="0.54" stop-color="#808080" stop-opacity="0.12"/>
<stop offset="1" stop-color="#808080" stop-opacity="0.1"/>
</linearGradient>
</defs>
</svg>
