<svg width="649" height="524" viewBox="0 0 649 524" fill="none" xmlns="http://www.w3.org/2000/svg">
<g clip-path="url(#clip0)">
<path opacity="0.1" d="M333.849 524.006C495.829 524.006 627.139 406.703 627.139 262.003C627.139 117.303 495.829 0 333.849 0C171.87 0 40.5596 117.303 40.5596 262.003C40.5596 406.703 171.87 524.006 333.849 524.006Z" fill="#5843E4"/>
<path opacity="0.1" d="M108.142 412.803C167.866 412.803 216.283 405.292 216.283 396.026C216.283 386.759 167.866 379.248 108.142 379.248C48.4166 379.248 0 386.759 0 396.026C0 405.292 48.4166 412.803 108.142 412.803Z" fill="#5843E4"/>
<path opacity="0.1" d="M160.119 492.735C183.349 492.735 202.181 488.841 202.181 484.037C202.181 479.234 183.349 475.34 160.119 475.34C136.888 475.34 118.057 479.234 118.057 484.037C118.057 488.841 136.888 492.735 160.119 492.735Z" fill="#5843E4"/>
<path opacity="0.1" d="M447.53 459.273C470.76 459.273 489.592 455.379 489.592 450.576C489.592 445.773 470.76 441.879 447.53 441.879C424.3 441.879 405.468 445.773 405.468 450.576C405.468 455.379 424.3 459.273 447.53 459.273Z" fill="#5843E4"/>
<path opacity="0.1" d="M304.802 451.973C342.578 451.973 373.201 446.78 373.201 440.374C373.201 433.969 342.578 428.776 304.802 428.776C267.026 428.776 236.402 433.969 236.402 440.374C236.402 446.78 267.026 451.973 304.802 451.973Z" fill="#5843E4"/>
<path opacity="0.1" d="M506.341 405.327C585.133 405.327 649.006 395.313 649.006 382.961C649.006 370.608 585.133 360.594 506.341 360.594C427.55 360.594 363.676 370.608 363.676 382.961C363.676 395.313 427.55 405.327 506.341 405.327Z" fill="#5843E4"/>
<path d="M29.5692 343.923C26.3645 350.163 24.8678 357.142 25.2311 364.149C25.5944 371.156 27.8049 377.942 31.6377 383.816C32.8952 385.704 34.0521 387.064 34.9763 387.423C39.4088 389.166 48.2865 393.452 48.2865 393.452L69.6633 385.044C69.6633 385.044 73.1339 366.667 76.4159 350.89C78.6541 340.128 80.817 330.581 81.7035 328.907C83.9166 324.785 81.7035 279.908 81.7035 279.908C81.7035 279.908 60.3267 278.473 54.448 294.968L51.8765 300.002L29.5692 343.923Z" fill="#A8A8A8"/>
<path opacity="0.1" d="M57.9502 348.882C70.946 363.791 76.4285 350.896 76.4285 350.896C78.6668 340.135 80.8296 330.588 81.7161 328.914C83.9293 324.792 81.7161 279.914 81.7161 279.914C81.7161 279.914 60.3393 278.479 54.4607 294.974L51.8892 300.008C50.2419 313.206 48.6135 338.152 57.9502 348.882Z" fill="white"/>
<path d="M60.8047 390.437L136.252 381.715L149.713 293.054L139.534 270.027C135.234 260.221 129.279 251.228 121.93 243.444C116.806 238.038 110.613 232.84 104.099 230.228C103.209 229.869 102.3 229.558 101.377 229.297C100.315 228.974 99.1923 228.907 98.0997 229.1C97.0072 229.294 95.9757 229.743 95.0893 230.411C85.7841 237.012 82.4581 265.081 81.383 278.592C80.9407 284.145 80.1914 289.668 79.1384 295.137L60.8047 390.437Z" fill="#A8A8A8"/>
<path opacity="0.1" d="M111.034 292.098L95.3153 330.802C103.552 324.773 115.755 291.94 115.755 291.94L126.689 329.373L117.975 289.92C119.25 281.353 119.621 272.675 119.081 264.03C118.39 254.124 109.103 238.227 104.061 230.222C103.171 229.863 102.262 229.552 101.339 229.291C100.277 228.968 99.1542 228.9 98.0617 229.094C96.9691 229.288 95.9377 229.737 95.0513 230.404C99.0123 238.365 108.915 258.271 111.933 264.187C115.762 271.638 111.034 292.098 111.034 292.098Z" fill="white"/>
<path d="M123.866 393.452H164.803C166.487 393.452 168.153 393.11 169.701 392.445C171.248 391.781 172.645 390.808 173.805 389.587C174.965 388.365 175.865 386.92 176.45 385.34C177.035 383.759 177.293 382.076 177.208 380.393C176.302 362.822 174.007 331.494 168.55 311.607C165.601 300.877 162.175 295.244 159.031 292.469C157.557 291.045 155.654 290.149 153.618 289.92C152.073 289.787 150.528 290.162 149.217 290.99C141.615 298.284 132.738 336.667 132.738 336.667L123.866 393.452Z" fill="#A8A8A8"/>
<path opacity="0.1" d="M161.659 359.411C163.344 364.087 164.01 369.48 161.659 374.735L152.536 379.247C152.536 379.247 128.016 368.845 130.996 347.523C130.996 347.523 131.801 343.118 140.244 343.457C144.993 343.687 149.566 345.327 153.38 348.169C157.194 351.01 160.076 354.924 161.659 359.411V359.411Z" fill="white"/>
<path opacity="0.1" d="M151.914 303.363C151.631 295.886 155.686 293.294 159.037 292.469C157.563 291.045 155.66 290.149 153.624 289.92C151.291 291.874 149.638 294.518 148.902 297.472L140.352 339.191C140.352 339.191 152.392 315.893 151.914 303.363Z" fill="white"/>
<path d="M113.096 336.352L133.366 364.106L136.881 387.014L123.853 393.452L105.073 397.605C103.265 398.007 101.405 398.128 99.5593 397.964L48.3115 393.452L55.2841 377.271L79.3645 343.432L113.096 336.352Z" fill="#A8A8A8"/>
<path opacity="0.1" d="M105.25 326.824C105.25 326.824 119.082 327.775 113.888 351.563C108.695 375.352 55.2593 377.259 55.2593 377.259C55.2593 377.259 66.6141 357.12 84.0802 342.69C86.0419 341.072 87.9344 339.386 89.7388 337.586C93.7564 333.564 101.439 326.497 105.25 326.824Z" fill="white"/>
<path opacity="0.1" d="M117.692 344.76C117.692 344.76 136.434 361.834 134.668 388.109Z" fill="black"/>
<path opacity="0.1" d="M149.223 290.99C149.223 290.99 129.556 317.17 127.349 357.454Z" fill="black"/>
<path opacity="0.1" d="M81.7226 279.895C81.7226 279.895 91.2416 323.162 67.4756 355.773Z" fill="black"/>
<path d="M255.095 440.135H357.666C358.657 440.13 359.63 439.868 360.491 439.375C361.351 438.882 362.069 438.174 362.576 437.321C363.082 436.467 363.359 435.497 363.38 434.505C363.401 433.513 363.165 432.532 362.696 431.658L311.435 336.327C310.944 335.413 310.215 334.65 309.325 334.117C308.435 333.585 307.417 333.304 306.38 333.304C305.343 333.304 304.326 333.585 303.436 334.117C302.546 334.65 301.817 335.413 301.325 336.327L250.04 431.658C249.569 432.534 249.333 433.517 249.355 434.511C249.378 435.506 249.657 436.477 250.166 437.331C250.675 438.185 251.397 438.893 252.261 439.384C253.125 439.875 254.101 440.134 255.095 440.135V440.135ZM312.906 422.715H299.854V409.657H312.906V422.715ZM312.906 400.947H299.854V374.823H312.906V400.947Z" fill="#464353"/>
<path opacity="0.1" d="M255.095 440.135H357.666C358.657 440.13 359.63 439.868 360.491 439.375C361.351 438.882 362.069 438.174 362.576 437.321C363.082 436.467 363.359 435.497 363.38 434.505C363.401 433.513 363.165 432.532 362.696 431.658L311.435 336.327C310.944 335.413 310.215 334.65 309.325 334.117C308.435 333.585 307.417 333.304 306.38 333.304C305.343 333.304 304.326 333.585 303.436 334.117C302.546 334.65 301.817 335.413 301.325 336.327L250.04 431.658C249.569 432.534 249.333 433.517 249.355 434.511C249.378 435.506 249.657 436.477 250.166 437.331C250.675 438.185 251.397 438.893 252.261 439.384C253.125 439.875 254.101 440.134 255.095 440.135V440.135ZM312.906 422.715H299.854V409.657H312.906V422.715ZM312.906 400.947H299.854V374.823H312.906V400.947Z" fill="black"/>
<path d="M255.095 443.282H357.666C358.657 443.277 359.63 443.015 360.491 442.521C361.351 442.028 362.069 441.321 362.576 440.467C363.082 439.614 363.359 438.644 363.38 437.652C363.401 436.66 363.165 435.679 362.696 434.805L311.435 339.474C310.944 338.56 310.215 337.796 309.325 337.264C308.435 336.732 307.417 336.451 306.38 336.451C305.343 336.451 304.326 336.732 303.436 337.264C302.546 337.796 301.817 338.56 301.325 339.474L250.04 434.805C249.569 435.681 249.333 436.664 249.355 437.658C249.378 438.652 249.657 439.624 250.166 440.478C250.675 441.332 251.397 442.039 252.261 442.531C253.125 443.022 254.101 443.281 255.095 443.282V443.282ZM312.906 425.862H299.854V412.803H312.906V425.862ZM312.906 404.094H299.854V377.97H312.906V404.094Z" fill="#464353"/>
<path d="M147.003 148.975C146.934 150.291 147.588 151.493 147.972 152.751C148.606 155.182 148.543 157.743 147.789 160.14C147.085 162.657 145.903 165.319 146.802 167.78C147.01 168.359 147.324 168.887 147.513 169.466C148.292 171.858 146.846 174.375 145.262 176.332L151.48 180.694C152.388 181.447 153.468 181.964 154.623 182.198C155.787 182.336 157.138 181.713 157.377 180.568C157.459 180.178 157.377 179.768 157.453 179.372C157.529 178.859 157.727 178.372 158.03 177.952C158.333 177.531 158.732 177.19 159.194 176.955C160.128 176.497 161.17 176.303 162.206 176.395C166.022 176.603 169.267 179.114 172.737 180.725C175.025 181.717 177.396 182.504 179.823 183.079C181.2 183.437 182.728 183.765 183.973 183.079C185.217 182.393 185.79 180.801 185.695 179.359C185.502 177.926 185.055 176.539 184.375 175.262C183.689 173.988 183.276 172.584 183.162 171.14C183.162 169.026 184.318 167.1 184.708 165.023C185.255 162.072 184.142 159.07 182.784 156.389C181.426 153.708 179.779 151.128 179.119 148.207C178.988 147.322 178.758 146.455 178.433 145.621C178.119 144.988 177.693 144.416 177.176 143.934C174.843 141.625 171.517 140.53 168.261 140.291C165.004 140.051 161.716 140.586 158.484 141.146C157.251 141.323 156.037 141.611 154.856 142.009C153.169 142.68 151.567 143.548 150.084 144.595C148.613 145.615 147.098 147.106 147.003 148.975Z" fill="#464353"/>
<g opacity="0.1">
<path opacity="0.1" d="M183.143 169.85C183.143 170.039 183.143 170.228 183.181 170.41C183.376 168.566 184.344 166.836 184.69 164.992C184.823 164.253 184.863 163.5 184.809 162.751C184.809 163.079 184.746 163.381 184.69 163.733C184.294 165.81 183.118 167.736 183.143 169.85Z" fill="black"/>
<path opacity="0.1" d="M148.393 155.269C148.467 153.995 148.325 152.718 147.972 151.493C147.6 150.538 147.295 149.558 147.06 148.56C147.06 148.692 147.01 148.818 147.004 148.95C146.934 150.265 147.588 151.467 147.972 152.726C148.215 153.553 148.356 154.407 148.393 155.269V155.269Z" fill="black"/>
<path opacity="0.1" d="M185.639 179.013C185.595 179.576 185.42 180.12 185.127 180.602C184.834 181.084 184.433 181.491 183.954 181.789C182.697 182.475 181.181 182.147 179.804 181.789C177.377 181.215 175.006 180.425 172.719 179.429C169.248 177.824 166.004 175.313 162.187 175.105C161.151 175.013 160.11 175.207 159.176 175.665C158.714 175.9 158.315 176.241 158.012 176.662C157.709 177.082 157.511 177.569 157.434 178.082C157.39 178.478 157.434 178.887 157.359 179.278C157.114 180.423 155.768 181.046 154.605 180.908C153.449 180.673 152.369 180.157 151.461 179.403L145.872 175.476C145.664 175.76 145.457 176.037 145.243 176.295L151.461 180.662C152.369 181.415 153.449 181.932 154.605 182.166C155.768 182.305 157.12 181.682 157.359 180.536C157.441 180.146 157.359 179.737 157.434 179.341C157.511 178.828 157.709 178.341 158.012 177.92C158.315 177.5 158.714 177.158 159.176 176.924C160.11 176.465 161.151 176.272 162.187 176.364C166.004 176.571 169.248 179.082 172.719 180.687C175.006 181.684 177.377 182.474 179.804 183.047C181.181 183.406 182.709 183.733 183.954 183.047C185.199 182.361 185.771 180.769 185.677 179.328C185.671 179.221 185.652 179.12 185.639 179.013Z" fill="black"/>
<path opacity="0.1" d="M147.513 169.435C147.591 169.688 147.647 169.947 147.683 170.209C147.78 169.527 147.722 168.832 147.513 168.176C147.324 167.597 147.01 167.069 146.803 166.49C146.651 166.069 146.554 165.632 146.513 165.187C146.42 166.052 146.519 166.926 146.803 167.748C147.01 168.327 147.324 168.862 147.513 169.435Z" fill="black"/>
</g>
<path d="M154.894 408.235C154.851 408.414 154.749 408.573 154.605 408.688C154.452 408.767 154.28 408.804 154.108 408.795C151.87 408.845 149.631 408.795 147.399 408.952C145.287 409.134 143.168 409.581 141.062 409.342C140.388 409.366 139.723 409.18 139.16 408.809C138.597 408.438 138.163 407.901 137.918 407.272C137.785 406.997 137.668 406.716 137.566 406.428C136.986 404.945 136.693 403.364 136.705 401.771C136.705 401.35 136.705 400.941 136.705 400.513C136.677 400.052 136.616 399.593 136.522 399.141C136.332 398.623 136.354 398.05 136.585 397.549C137.478 395.919 139.635 395.591 141.294 395.465C145.14 395.175 149.007 395.46 152.769 396.309C153.064 397.756 153.397 399.191 153.75 400.626C154.009 401.679 154.286 402.728 154.579 403.773C154.776 404.419 154.936 405.077 155.057 405.742C155.213 406.574 155.157 407.431 154.894 408.235Z" fill="#464353"/>
<path opacity="0.06" d="M154.894 408.235C154.851 408.414 154.749 408.573 154.604 408.688C154.452 408.767 154.28 408.804 154.108 408.795C151.87 408.845 149.631 408.795 147.399 408.952C145.287 409.134 143.168 409.581 141.062 409.342C140.388 409.366 139.723 409.18 139.16 408.809C138.597 408.438 138.163 407.901 137.918 407.272C137.785 406.997 137.668 406.716 137.566 406.428H138.371C141.018 406.428 143.671 406.334 146.318 406.334C147.116 406.334 147.921 406.296 148.713 406.202C149.506 406.107 150.153 405.975 150.876 405.887C151.958 405.783 153.046 405.739 154.133 405.755H155.026C155.189 406.58 155.144 407.432 154.894 408.235Z" fill="black"/>
<path d="M201.2 396.548C200.499 397.367 199.604 397.997 198.597 398.379C194.12 400.267 188.946 399.418 184.325 397.882C183.291 397.498 182.229 397.193 181.149 396.969C180.164 396.831 179.17 396.762 178.176 396.762C177.465 396.762 176.755 396.705 176.044 396.661C174.246 396.548 172.454 396.372 170.669 396.195C169.424 396.104 168.188 395.917 166.972 395.635C166.626 395.547 166.294 395.411 165.984 395.233V395.233C165.721 395.117 165.495 394.928 165.335 394.688C165.175 394.448 165.086 394.168 165.079 393.879C165.129 393.08 165.959 392.621 166.689 392.275C173.158 389.474 180.187 388.26 187.166 387.284C187.876 387.165 188.568 386.954 189.222 386.655C190.008 386.34 190.09 386.856 190.48 387.435C190.664 387.703 190.875 387.952 191.109 388.178C191.867 388.863 192.757 389.386 193.724 389.713C195.422 390.343 197.239 390.513 198.936 391.11C199.45 391.289 199.941 391.525 200.401 391.815C200.807 392.037 201.157 392.348 201.424 392.725C201.692 393.103 201.869 393.537 201.943 393.993C202.017 394.45 201.986 394.918 201.851 395.361C201.717 395.803 201.483 396.209 201.168 396.548H201.2Z" fill="#464353"/>
<path opacity="0.06" d="M201.2 396.548C200.499 397.367 199.604 397.997 198.597 398.379C194.12 400.267 188.946 399.418 184.325 397.882C183.291 397.498 182.23 397.193 181.15 396.969C180.164 396.831 179.171 396.762 178.176 396.762C177.465 396.762 176.755 396.705 176.044 396.661C176.623 396.114 177.214 395.579 177.817 395.063C178.255 394.653 178.759 394.321 179.308 394.081C179.991 393.857 180.719 393.807 181.426 393.936C185.023 394.433 188.254 396.957 191.882 396.737C193.572 396.542 195.207 396.014 196.692 395.182C197.899 394.69 198.976 393.923 199.836 392.942C200.095 392.604 200.293 392.222 200.42 391.815C200.826 392.037 201.176 392.348 201.444 392.725C201.711 393.103 201.888 393.537 201.962 393.993C202.036 394.45 202.005 394.918 201.871 395.361C201.736 395.803 201.503 396.209 201.187 396.548H201.2Z" fill="black"/>
<path d="M199.936 287.176C199.307 288.435 198.503 289.801 197.145 290.191C195.17 290.757 193.272 288.983 192.41 287.12C191.236 284.386 191.015 281.336 191.782 278.46C192.14 277.006 192.687 275.609 192.995 274.149C193.217 272.921 193.352 271.678 193.397 270.43C193.583 268.569 193.539 266.692 193.265 264.841C192.253 259.435 187.607 255.401 186.06 250.09C185.281 247.44 185.318 244.621 185.362 241.858C185.348 241.16 185.419 240.462 185.576 239.781C185.623 239.596 185.686 239.415 185.765 239.24C186.802 236.937 189.877 236.622 192.014 235.282C193.196 234.545 195.881 232.173 196.874 234.338C197.089 234.82 197.249 235.324 197.352 235.842C197.761 237.768 197.597 240.027 197.698 241.846C198.081 248.718 199.792 255.578 198.999 262.412C198.811 263.577 198.718 264.756 198.723 265.936C198.893 268.894 200.741 271.456 201.59 274.288C202.898 278.548 201.848 283.186 199.936 287.176Z" fill="#FBBEBE"/>
<path opacity="0.1" d="M197.384 235.854C196.916 235.685 196.405 235.685 195.937 235.854L191.681 237.113C190.189 237.511 188.736 238.04 187.336 238.693C186.726 238.993 186.146 239.353 185.607 239.769C185.654 239.583 185.717 239.402 185.796 239.228C186.833 236.924 189.908 236.61 192.046 235.269C193.228 234.533 195.912 232.16 196.906 234.325C197.122 234.815 197.282 235.328 197.384 235.854V235.854Z" fill="black"/>
<path d="M197.66 235.376C197.403 235.22 197.114 235.126 196.815 235.102C196.516 235.078 196.215 235.125 195.937 235.238L191.681 236.496C190.189 236.895 188.735 237.423 187.336 238.076C186.594 238.438 185.899 238.89 185.268 239.423C183.281 235.968 182.753 231.871 182.388 227.906C182.187 225.596 182.036 223.28 181.948 220.983C181.849 219.33 181.883 217.672 182.048 216.024C182.287 214.136 182.834 212.292 183.174 210.417C183.376 209.319 183.506 208.209 183.564 207.094C183.727 204.658 183.615 202.211 183.231 199.8C182.865 197.237 182.28 194.711 181.483 192.248C181.08 191.122 180.596 190.033 180.156 188.925L180.005 188.535C179.21 186.505 178.561 184.421 178.062 182.298C177.861 181.43 177.849 180.517 177.182 179.926C177.808 179.85 178.439 179.825 179.068 179.85C179.194 179.85 179.32 179.85 179.446 179.85C182.028 180.013 184.517 180.884 186.638 182.368C189.37 184.341 191.447 187.09 192.599 190.259C193.925 193.803 194.145 197.654 194.315 201.436C194.655 208.871 194.864 216.31 194.944 223.752C194.944 225.181 195.007 226.704 195.824 227.881C196.053 228.171 196.263 228.476 196.453 228.793C196.748 229.423 196.704 230.121 196.943 230.757C197.119 231.138 197.318 231.508 197.54 231.864C197.822 232.403 197.979 232.999 197.999 233.607C198.02 234.215 197.904 234.819 197.66 235.376Z" fill="#464353"/>
<path d="M155.812 161.505C155.183 161.298 154.555 161.077 153.926 160.876L155.234 160.977C155.452 161.123 155.646 161.301 155.812 161.505Z" fill="#FBBEBE"/>
<path d="M181.558 184.218C181.432 184.646 181.307 185.074 181.168 185.476C180.849 186.511 180.46 187.522 180.005 188.504C179.293 190.116 178.284 191.581 177.031 192.821C176.618 193.257 176.11 193.593 175.547 193.803C175.071 193.924 174.579 193.971 174.089 193.941C172.412 193.941 170.736 193.916 169.059 193.865C167.754 193.88 166.451 193.751 165.173 193.482C163.768 193.098 162.431 192.495 161.212 191.694C156.516 188.787 152.655 184.356 151.002 179.108C150.794 178.441 150.65 177.641 151.109 177.119C151.56 176.75 152.129 176.556 152.712 176.571H152.787C154.139 176.395 155.442 175.948 156.616 175.256C157.378 174.866 157.991 174.239 158.364 173.469C158.619 172.556 158.599 171.589 158.308 170.687L156.912 164.344C156.767 163.328 156.385 162.36 155.799 161.518C156.208 161.663 156.616 161.795 157.057 161.908C160.942 162.959 165.192 162.323 169.002 163.702C170.461 164.237 171.92 165.199 172.36 166.697C173.095 169.215 170.637 171.826 171.341 174.344C171.813 176.055 173.554 177.043 175.114 177.843L176.164 178.378L179.075 179.857L179.477 180.058L179.54 180.089C180.458 180.555 181.426 181.134 181.747 182.122C181.884 182.824 181.818 183.551 181.558 184.218V184.218Z" fill="#FBBEBE"/>
<path opacity="0.1" d="M189.229 198.995C189.122 200.603 188.73 202.18 188.072 203.652C186.81 206.196 186.133 208.992 186.091 211.833C185.607 220.329 182.382 230.442 187.003 237.579C187.116 237.755 187.229 237.931 187.336 238.114C186.594 238.475 185.899 238.928 185.268 239.46C183.281 236.005 182.753 231.909 182.388 227.944C182.187 225.634 182.036 223.318 181.948 221.021C181.849 219.368 181.883 217.71 182.049 216.062C182.287 214.174 182.834 212.33 183.174 210.455C183.376 209.357 183.506 208.247 183.564 207.132C183.727 204.696 183.615 202.249 183.231 199.838C182.865 197.275 182.28 194.748 181.483 192.286C181.08 191.159 180.596 190.071 180.156 188.963L180.005 188.573C179.293 190.186 178.284 191.65 177.031 192.89C176.618 193.326 176.11 193.662 175.547 193.872C175.071 193.994 174.579 194.04 174.089 194.01C172.412 194.01 170.736 193.985 169.059 193.935C167.754 193.949 166.451 193.82 165.173 193.551C163.768 193.167 162.431 192.564 161.212 191.764C156.516 188.856 152.655 184.426 151.002 179.177C150.794 178.51 150.65 177.711 151.109 177.188C151.56 176.819 152.129 176.625 152.712 176.641H152.787L158.446 183.645C159.095 184.386 159.645 185.209 160.081 186.093C160.165 186.39 160.341 186.652 160.584 186.842C160.78 186.932 160.997 186.971 161.212 186.955C166.525 186.955 173.605 186.955 178.917 186.955C178.935 186.013 178.663 185.088 178.138 184.306C177.974 184.344 177.754 184.356 178.094 184.256C177.787 182.213 177.127 180.239 176.145 178.422C176.086 178.297 176.021 178.175 175.95 178.057C175.528 177.434 175.213 176.745 175.019 176.018C175.69 175.804 176.411 175.804 177.082 176.018C177.855 176.351 178.257 177.188 178.597 177.962C178.886 178.592 179.175 179.265 179.433 179.926C179.433 179.995 179.496 180.071 179.521 180.14C180.069 181.442 180.421 182.818 180.565 184.224C180.602 184.74 180.728 185.395 181.156 185.565C181.223 185.595 181.296 185.612 181.369 185.615C181.812 185.453 182.293 185.426 182.751 185.538C183.209 185.65 183.623 185.896 183.941 186.244C184.559 186.953 184.992 187.806 185.198 188.724C185.403 189.642 185.702 190.536 186.091 191.392C186.902 192.94 185.664 193.633 187.129 194.583C187.814 194.96 188.403 195.49 188.851 196.131C189.266 197.025 189.397 198.024 189.229 198.995V198.995Z" fill="black"/>
<path opacity="0.1" d="M152.712 396.334C153.008 397.781 153.341 399.216 153.693 400.651L153.655 400.739C150.782 399.481 147.839 398.165 144.702 397.888C141.791 397.637 138.629 398.423 136.648 400.538C136.62 400.077 136.56 399.618 136.466 399.166C136.275 398.648 136.298 398.075 136.529 397.574C137.421 395.944 139.578 395.616 141.238 395.491C145.083 395.201 148.95 395.485 152.712 396.334Z" fill="black"/>
<path opacity="0.1" d="M177.478 185.458C177.773 185.458 177.666 185.458 177.522 185.508C177.377 185.558 177.138 185.558 177.478 185.458Z" fill="black"/>
<path opacity="0.1" d="M191.14 388.178C188.336 389.966 185.701 392.008 183.268 394.276C182.562 395.033 181.719 395.65 180.785 396.095C179.82 396.406 178.8 396.511 177.792 396.403C173.837 396.243 169.894 395.852 165.984 395.233V395.233C165.721 395.117 165.495 394.928 165.335 394.688C165.175 394.448 165.086 394.168 165.079 393.879C165.129 393.08 165.959 392.621 166.689 392.275C173.158 389.474 180.187 388.26 187.166 387.284C187.876 387.165 188.568 386.954 189.222 386.655C190.008 386.34 190.09 386.856 190.48 387.435C190.674 387.705 190.895 387.953 191.14 388.178V388.178Z" fill="black"/>
<path d="M145.01 178.157C145.934 178.982 146.991 179.649 147.927 180.448C150.442 182.582 152.027 185.565 153.586 188.472C152.661 188.807 151.661 188.874 150.7 188.667C150.206 191.459 150.289 194.323 150.945 197.081C149.687 197.945 148.71 199.16 148.135 200.574C147.688 202.01 147.38 203.485 147.217 204.979C146.311 211.529 145.402 218.078 144.488 224.627C144.47 225.268 144.25 225.887 143.859 226.396C143.685 226.537 143.525 226.695 143.382 226.868C143.189 227.291 143.113 227.758 143.162 228.221C143.124 228.68 142.822 229.228 142.363 229.165C142.14 229.111 141.942 228.982 141.804 228.8C141.344 228.313 140.924 227.791 140.546 227.239C136.837 234.363 135.051 242.041 133.089 249.832C131.687 255.383 130.285 260.996 130.216 266.723C130.235 269.432 130.405 272.139 130.725 274.829L131.279 280.354C131.725 284.798 132.171 289.247 132.655 293.69C132.97 296.509 133.284 299.354 134.296 302.01C135.805 306.044 134.133 310.594 134.774 314.861C135.277 318.202 136.277 321.657 135.271 324.88C134.869 326.17 134.164 327.347 133.636 328.593C132.341 331.689 132.209 335.131 132.096 338.486C131.892 341.426 132.002 344.379 132.423 347.296C132.964 350.311 134.177 353.262 133.938 356.308C133.605 360.644 130.411 364.351 130.021 368.681C129.713 372.136 131.228 375.472 132.857 378.536C134.058 380.796 132.385 383.716 131.75 386.202C130.493 391.073 132.586 396.17 135.152 400.494C135.217 400.642 135.333 400.763 135.478 400.834C135.774 400.941 136.038 400.651 136.233 400.406C138.163 397.926 141.583 396.988 144.721 397.259C147.858 397.53 150.794 398.826 153.674 400.11L157.754 391.016C158.446 389.474 159.15 387.806 158.804 386.151C158.559 384.968 157.798 383.968 157.258 382.885C156 380.33 155.937 377.353 155.925 374.49L155.849 358.316C159.031 354.313 160.973 349.556 162.199 344.584C164.08 351.577 164.21 358.926 162.577 365.981C162.275 367.048 162.064 368.139 161.948 369.241C161.703 373.728 165.217 377.523 166.154 381.916C166.245 382.252 166.271 382.602 166.23 382.948C166.124 383.373 165.948 383.777 165.708 384.144C164.023 387.202 164.205 390.909 164.45 394.396C168.859 395.164 173.314 395.641 177.786 395.824C178.794 395.925 179.812 395.82 180.778 395.516C181.713 395.069 182.556 394.45 183.262 393.691C186.117 391.003 189.251 388.63 192.611 386.611C190.735 383.494 188.108 380.898 184.972 379.059C185.984 377.567 188.292 377.687 189.637 376.491C190.313 375.822 190.754 374.952 190.895 374.011C191.398 371.545 190.775 368.977 190.153 366.554C188.946 361.784 187.732 356.994 185.752 352.488C184.856 350.636 184.067 348.735 183.388 346.793C181.74 341.368 182.891 335.465 181.646 329.921C181.244 328.146 180.596 326.314 181.049 324.546C181.74 321.821 184.821 320.204 185.5 317.472C187.933 307.749 188.367 297.674 189.75 287.749C190.06 285.853 190.226 283.937 190.247 282.016C190.247 280.008 189.889 278.02 189.744 276.018C189.178 268.007 191.737 260.014 191.083 252.009C190.665 247.076 189.041 242.322 186.355 238.164C181.734 231.021 184.959 220.914 185.444 212.418C185.48 209.577 186.155 206.781 187.418 204.237C188.082 202.767 188.476 201.189 188.581 199.58C188.775 198.587 188.652 197.559 188.229 196.641C187.786 195.997 187.198 195.466 186.512 195.093C185.048 194.136 186.286 193.444 185.475 191.896C185.085 191.04 184.786 190.146 184.582 189.227C184.376 188.311 183.944 187.46 183.325 186.754C183.007 186.406 182.593 186.16 182.135 186.048C181.677 185.936 181.196 185.962 180.753 186.125C180.156 186.125 179.993 185.332 179.942 184.734C179.772 182.544 178.867 180.486 177.981 178.472C177.641 177.698 177.239 176.861 176.465 176.527C175.792 176.317 175.07 176.317 174.397 176.527C174.592 177.257 174.908 177.949 175.334 178.573C176.423 180.486 177.148 182.586 177.471 184.765C176.843 184.954 178.1 184.765 177.471 184.765C178.034 185.55 178.324 186.499 178.295 187.465C172.988 187.465 165.909 187.465 160.596 187.465C160.38 187.482 160.164 187.443 159.967 187.352C159.725 187.16 159.547 186.899 159.458 186.603C159.026 185.719 158.476 184.898 157.824 184.161L151.599 176.477C151.461 176.276 151.278 176.11 151.065 175.992C150.808 175.92 150.536 175.92 150.279 175.992C148.261 176.288 146.77 177.132 145.01 178.157Z" fill="#5843E4"/>
<path opacity="0.1" d="M167.349 282.274C168.422 282.259 169.48 282.533 170.411 283.067C170.873 283.339 171.257 283.727 171.523 284.193C171.79 284.659 171.931 285.186 171.932 285.723C171.863 286.912 170.952 287.856 170.291 288.869C169.883 289.487 169.557 290.155 169.323 290.858C169.251 291.018 169.233 291.197 169.273 291.368C169.348 291.607 169.606 291.726 169.826 291.833C170.626 292.196 171.309 292.774 171.799 293.503C172.289 294.232 172.566 295.084 172.599 295.962C172.542 298.416 170.147 300.405 170.279 302.884C170.339 303.401 170.427 303.913 170.543 304.42C170.831 306.533 170.537 308.685 169.694 310.644C168.933 312.62 167.896 314.477 167.079 316.434C164.872 321.752 164.394 327.642 164.564 333.426C164.696 337.353 163.306 341.091 162.049 344.829C162.759 337.3 162.948 329.729 162.615 322.173C162.527 320.122 162.269 318.184 162.363 316.126C162.514 312.859 164.337 309.889 164.803 306.686C165.067 304.854 164.891 302.991 164.935 301.141C165.023 297.365 166.048 293.64 166.117 289.851C166.205 287.176 165.96 284.42 167.349 282.274Z" fill="black"/>
<path d="M141.112 179.504C139.862 180.128 138.693 180.901 137.629 181.807C136.518 182.913 135.588 184.187 134.875 185.583C134.007 187.166 133.228 188.797 132.543 190.467C131.656 192.632 130.921 195.03 131.531 197.289C132.084 199.334 133.649 200.927 134.731 202.745C135.812 204.564 136.447 206.698 137.277 208.693C138.384 211.355 139.899 213.834 140.993 216.503C142.087 219.171 142.747 222.166 142.055 224.942C141.854 225.76 140.528 226.396 140.528 227.233C140.528 228.617 142.527 230.121 143.854 230.524C145.381 230.996 147.048 230.291 148.299 229.265C150.594 227.447 151.989 224.722 153.021 221.978C154.68 217.572 155.567 212.896 156.365 208.252C156.944 204.841 157.485 201.424 157.793 197.988C158.076 194.891 158.164 191.694 157.346 188.724C156.584 185.997 155.1 183.528 153.052 181.575C151.417 180.001 148.739 177.887 146.362 177.83C144.482 177.824 142.722 178.617 141.112 179.504Z" fill="#464353"/>
<path d="M158.987 255.37C158.918 255.8 158.758 256.21 158.516 256.572C158.274 256.934 157.956 257.239 157.585 257.466C156.843 257.917 156.034 258.248 155.189 258.447C153.504 258.938 151.719 259.391 150.015 258.957C148.676 258.521 147.439 257.816 146.381 256.887L127.343 242.299C125.813 241.214 124.407 239.964 123.149 238.573C122.427 237.675 121.763 236.731 121.162 235.747C120.367 234.621 119.744 233.383 119.314 232.072C119.16 231.495 119.084 230.901 119.088 230.304C119.082 229.739 119.221 229.183 119.49 228.686C119.949 227.919 120.93 227.761 121.734 227.547C124.436 226.848 127.239 226.635 130.015 226.918C130.259 226.906 130.5 226.974 130.702 227.112C130.903 227.249 131.055 227.448 131.134 227.679C131.555 228.454 131.92 229.259 132.297 230.065C132.876 231.438 133.631 232.731 134.542 233.91C135.42 234.865 136.354 235.767 137.34 236.61C139.351 238.498 140.999 240.763 143.143 242.5C145.626 244.508 148.644 245.71 151.473 247.189C154.303 248.668 157.094 250.587 158.515 253.451C158.845 254.035 159.008 254.699 158.987 255.37Z" fill="#FBBEBE"/>
<path opacity="0.1" d="M181.024 153.595C181.025 157.568 179.509 161.391 176.787 164.283C174.065 167.175 170.342 168.917 166.379 169.152C162.417 169.388 158.514 168.099 155.469 165.55C152.424 163.001 150.467 159.384 149.998 155.438C149.529 151.493 150.584 147.517 152.946 144.324C155.309 141.131 158.8 138.962 162.707 138.26C166.615 137.558 170.642 138.377 173.966 140.549C177.29 142.721 179.659 146.082 180.59 149.944C180.879 151.14 181.024 152.365 181.024 153.595V153.595Z" fill="black"/>
<path d="M181.024 152.965C181.025 156.939 179.509 160.762 176.787 163.654C174.065 166.546 170.342 168.287 166.379 168.523C162.417 168.758 158.514 167.47 155.469 164.921C152.424 162.371 150.467 158.754 149.998 154.809C149.529 150.863 150.584 146.888 152.946 143.695C155.309 140.501 158.8 138.332 162.707 137.631C166.615 136.929 170.642 137.748 173.966 139.92C177.29 142.092 179.659 145.453 180.59 149.315C180.879 150.51 181.024 151.736 181.024 152.965V152.965Z" fill="#FBBEBE"/>
<path opacity="0.1" d="M132.297 230.039C131.58 230.499 130.518 230.348 129.631 230.146C126.136 229.366 122.275 228.806 119.088 230.304C119.082 229.739 119.221 229.183 119.49 228.686C119.949 227.919 120.93 227.761 121.734 227.547C124.436 226.848 127.239 226.635 130.015 226.918C130.259 226.906 130.5 226.974 130.702 227.112C130.903 227.249 131.055 227.448 131.134 227.679C131.555 228.428 131.92 229.234 132.297 230.039Z" fill="black"/>
<path d="M125.727 208.85C124.954 211.367 124.319 213.954 122.803 216.087C122.302 216.648 121.925 217.309 121.697 218.025C121.68 218.555 121.593 219.08 121.439 219.586C121.225 220.014 120.773 220.297 120.59 220.738C120.32 221.367 120.672 222.179 120.314 222.771C120.146 223.008 119.945 223.22 119.716 223.4C118.861 224.193 118.647 225.458 118.629 226.628C118.61 227.799 118.723 228.995 118.339 230.096C121.659 228.114 125.884 228.705 129.656 229.549C130.706 229.781 132.008 229.958 132.687 229.114C133.366 228.271 132.976 227.163 133.07 226.15C133.196 224.829 134.102 223.734 134.661 222.531C135.29 221.178 135.504 219.668 135.988 218.258C136.987 215.294 139.131 212.878 140.508 210.077C141.018 209.114 141.322 208.055 141.401 206.968C141.354 205.559 140.986 204.18 140.326 202.934C139.018 200.034 137.461 197.252 135.673 194.621C134.875 193.444 133.498 191.266 132.259 193.148C131.253 194.665 130.625 196.597 129.883 198.258C128.284 201.701 126.896 205.238 125.727 208.85Z" fill="#464353"/>
<path d="M182.457 184.419C180.57 184.549 178.677 184.256 176.917 183.56C175.157 182.864 173.574 181.784 172.285 180.398C172.067 180.2 171.91 179.945 171.832 179.661C171.796 179.293 171.899 178.925 172.121 178.629C172.876 177.465 174.177 176.697 174.781 175.445C175.384 174.193 175.177 172.751 175.233 171.379C175.334 168.919 176.302 166.483 176.384 164.06C176.413 163.44 176.367 162.819 176.246 162.21C175.956 161.306 175.779 160.37 175.717 159.422C175.799 157.578 177.459 156.143 177.736 154.325C178.094 152.009 176.176 149.995 174.246 148.661C172.774 147.639 171.177 146.812 169.493 146.2C168.459 145.829 167.388 145.57 166.299 145.426C164.269 145.151 162.202 145.383 160.282 146.099C159.488 146.399 158.735 146.801 158.044 147.295C157.632 147.556 157.289 147.912 157.044 148.333C156.843 148.808 156.752 149.322 156.78 149.837C156.742 152.411 157.032 155.149 155.806 157.389C155.177 158.591 154.108 159.567 153.586 160.838C153.373 161.367 153.239 161.925 153.19 162.493C153.127 163.083 153.096 163.675 153.096 164.268C153.058 167.585 153.096 171.084 154.781 173.96C155.375 174.829 155.915 175.735 156.397 176.672C156.63 177.146 156.738 177.672 156.711 178.2C156.683 178.728 156.521 179.24 156.239 179.687C155.899 180.095 155.468 180.418 154.982 180.631C153.734 181.23 152.375 181.565 150.991 181.615C149.608 181.665 148.229 181.428 146.94 180.92C148.447 179.491 149.481 177.636 149.906 175.603C150.331 173.57 150.125 171.455 149.317 169.542C148.863 168.769 148.568 167.913 148.449 167.024C148.512 166.224 148.726 165.443 149.078 164.721C149.94 162.356 150.074 159.787 149.462 157.345C149.078 155.848 148.412 154.4 148.292 152.858C148.192 151.694 148.243 150.523 148.443 149.372C148.788 147.313 149.694 145.389 151.062 143.813C152.43 142.237 154.207 141.07 156.195 140.442C156.516 140.335 156.824 140.234 157.176 140.146C158.702 139.807 160.26 139.64 161.822 139.649C165.312 139.535 168.852 139.435 172.215 140.347C174.19 140.865 176.027 141.81 177.597 143.116C178.712 144.054 179.601 145.23 180.2 146.559C180.527 147.324 180.774 148.121 180.936 148.938C181.08 149.611 181.187 150.291 181.294 150.97C182.055 155.81 182.816 160.744 182.005 165.577C181.684 167.465 181.124 169.353 180.873 171.279C180.263 175.716 181.363 180.127 182.457 184.419Z" fill="#464353"/>
<path d="M160.119 190.637C160.765 190.637 161.288 190.113 161.288 189.466C161.288 188.82 160.765 188.296 160.119 188.296C159.473 188.296 158.949 188.82 158.949 189.466C158.949 190.113 159.473 190.637 160.119 190.637Z" fill="white"/>
<path d="M179.854 190.083C180.5 190.083 181.024 189.559 181.024 188.913C181.024 188.266 180.5 187.742 179.854 187.742C179.209 187.742 178.685 188.266 178.685 188.913C178.685 189.559 179.209 190.083 179.854 190.083Z" fill="white"/>
<path opacity="0.1" d="M160.118 130.309L157.604 125.558C157.763 125.368 157.937 125.191 158.125 125.029C158.488 124.805 158.914 124.704 159.339 124.74L160.118 130.309Z" fill="black"/>
<path opacity="0.1" d="M167.054 124.519L164.206 128.736L162.583 124.11C163.276 123.813 164.025 123.671 164.778 123.695C165.577 123.841 166.346 124.12 167.054 124.519V124.519Z" fill="black"/>
<g opacity="0.1">
<path opacity="0.1" d="M156.239 178.441C155.899 178.849 155.468 179.172 154.982 179.385C152.752 180.452 150.209 180.665 147.833 179.982C147.557 180.319 147.259 180.636 146.94 180.933C148.229 181.441 149.608 181.678 150.991 181.628C152.375 181.578 153.734 181.243 154.982 180.643C155.468 180.43 155.899 180.107 156.239 179.699C156.456 179.385 156.603 179.029 156.673 178.653C156.742 178.278 156.731 177.893 156.642 177.522C156.579 177.855 156.441 178.169 156.239 178.441Z" fill="black"/>
<path opacity="0.1" d="M149.417 157.364C149.623 158.189 149.743 159.032 149.776 159.882C149.848 158.612 149.727 157.339 149.417 156.106C149.034 154.608 148.367 153.16 148.248 151.618C148.248 151.423 148.248 151.228 148.216 151.027C148.186 151.644 148.197 152.262 148.248 152.877C148.367 154.419 149.034 155.866 149.417 157.364Z" fill="black"/>
<path opacity="0.1" d="M181.96 165.596C182.227 163.932 182.341 162.246 182.3 160.561C182.278 161.826 182.164 163.088 181.96 164.337C181.64 166.225 181.08 168.113 180.829 170.039C180.699 171.072 180.651 172.114 180.684 173.154C180.701 172.533 180.75 171.914 180.829 171.298C181.08 169.372 181.64 167.503 181.96 165.596Z" fill="black"/>
<path opacity="0.1" d="M149.292 168.296C148.962 167.676 148.697 167.025 148.5 166.351C148.446 166.578 148.421 166.81 148.424 167.043C148.543 167.932 148.838 168.788 149.292 169.561C149.753 170.616 150.02 171.746 150.078 172.896C150.191 171.322 149.922 169.743 149.292 168.296V168.296Z" fill="black"/>
<path opacity="0.1" d="M176.245 162.185C176.3 162.472 176.34 162.762 176.365 163.053C176.365 162.959 176.365 162.871 176.365 162.776C176.394 162.156 176.347 161.535 176.226 160.926C176.088 160.265 175.862 159.611 175.755 158.944C175.724 159.093 175.705 159.245 175.698 159.397C175.766 160.345 175.949 161.282 176.245 162.185V162.185Z" fill="black"/>
<path opacity="0.1" d="M172.285 179.114C172.188 179.013 172.097 178.906 172.014 178.793C171.859 179.045 171.795 179.343 171.832 179.636C171.91 179.919 172.067 180.175 172.285 180.373C173.574 181.759 175.157 182.839 176.917 183.535C178.677 184.231 180.57 184.524 182.457 184.394C182.35 183.979 182.244 183.57 182.143 183.135C180.307 183.22 178.474 182.904 176.772 182.21C175.07 181.515 173.539 180.459 172.285 179.114V179.114Z" fill="black"/>
<path opacity="0.1" d="M177.723 153.129C177.72 153.106 177.72 153.083 177.723 153.06C178.082 150.744 176.164 148.73 174.234 147.396C172.762 146.374 171.164 145.547 169.481 144.935C168.446 144.564 167.376 144.305 166.287 144.161C164.256 143.886 162.189 144.118 160.27 144.834C159.475 145.134 158.723 145.536 158.031 146.03C157.62 146.291 157.277 146.647 157.032 147.068C156.83 147.543 156.74 148.058 156.768 148.573C156.768 149.007 156.768 149.441 156.768 149.882V149.831C156.74 149.316 156.83 148.802 157.032 148.327C157.277 147.906 157.62 147.549 158.031 147.289C158.723 146.795 159.475 146.393 160.27 146.093C162.189 145.376 164.256 145.145 166.287 145.42C167.376 145.563 168.446 145.823 169.481 146.194C171.164 146.805 172.762 147.633 174.234 148.654C175.837 149.737 177.415 151.298 177.723 153.129Z" fill="black"/>
<path opacity="0.1" d="M155.806 156.143C155.177 157.345 154.108 158.321 153.586 159.592C153.373 160.121 153.239 160.679 153.19 161.247C153.127 161.837 153.096 162.429 153.096 163.022C153.096 163.557 153.096 164.098 153.096 164.639C153.096 164.52 153.096 164.4 153.096 164.281C153.096 163.688 153.127 163.095 153.19 162.506C153.239 161.938 153.373 161.38 153.586 160.851C154.108 159.592 155.152 158.604 155.806 157.402C156.818 155.514 156.799 153.343 156.78 151.184C156.864 152.892 156.529 154.594 155.806 156.143V156.143Z" fill="black"/>
</g>
<path opacity="0.1" d="M180.892 148.982C180.805 149.105 180.704 149.217 180.59 149.315C180.368 149.498 180.12 149.646 179.854 149.756C178.025 150.549 178.1 147.962 177.144 147.075C176.532 146.622 175.779 146.399 175.019 146.445C173.179 146.353 171.337 146.271 169.493 146.2C166.418 146.087 163.35 146.03 160.282 146.099C158.811 146.124 157.344 146.185 155.881 146.282C154.183 146.395 152.36 146.615 150.914 147.421C150.419 147.693 149.971 148.044 149.587 148.459C149.241 148.837 148.877 149.315 148.399 149.403C148.744 147.344 149.65 145.421 151.018 143.845C152.386 142.269 154.162 141.102 156.151 140.473C159.371 138.072 163.393 137.01 167.377 137.509C171.36 138.007 174.998 140.028 177.528 143.148C178.642 144.085 179.532 145.262 180.131 146.59C180.468 147.358 180.723 148.16 180.892 148.982V148.982Z" fill="black"/>
<path d="M179.855 148.497C178.025 149.29 178.1 146.703 177.145 145.816C176.532 145.364 175.78 145.141 175.02 145.187C168.648 144.767 162.258 144.713 155.881 145.023C153.611 145.174 151.122 145.514 149.594 147.201C149.204 147.629 148.795 148.182 148.211 148.163C148.016 146.905 147.877 145.596 147.783 144.306C147.726 143.822 147.752 143.333 147.858 142.858C148.016 142.317 148.374 141.858 148.556 141.329C148.736 140.657 148.8 139.958 148.745 139.265C148.773 136.697 149.462 134.18 150.746 131.958C152.03 129.735 153.866 127.882 156.076 126.577C156.631 126.306 157.145 125.959 157.604 125.545C157.763 125.355 157.938 125.178 158.126 125.017C158.489 124.793 158.914 124.691 159.339 124.727C159.641 124.727 159.968 124.727 160.232 124.727C161.045 124.637 161.84 124.425 162.59 124.098C163.282 123.8 164.031 123.658 164.784 123.682C165.583 123.828 166.352 124.107 167.06 124.507C167.4 124.671 167.756 124.8 168.122 124.891C168.695 125.023 169.286 125.017 169.858 125.13C170.784 125.366 171.665 125.758 172.461 126.288C173.411 126.801 174.29 127.435 175.076 128.176C175.931 129.154 176.615 130.268 177.101 131.474C177.933 133.138 178.567 134.896 178.987 136.71C179.496 139.315 179.245 142.134 180.452 144.501C181.187 145.986 181.86 147.635 179.855 148.497Z" fill="#FED253"/>
<path opacity="0.1" d="M147.984 146.521C147.984 146.521 161.017 134.652 180.426 144.494C180.426 144.494 158.515 139.504 147.984 146.521Z" fill="black"/>
<path d="M5.96651 207.17C4.19349 204.262 1.52767 201.6 1.94263 198.302C6.82158 198.862 11.449 197.673 15.9193 195.602C20.3896 193.532 24.5392 190.845 28.7265 188.208C30.3738 187.169 32.0148 186.15 33.6495 185.206C36.2398 183.721 38.8113 182.059 41.4457 180.605C45.2181 178.529 49.0659 176.829 53.3036 176.502C54.0712 176.442 54.8414 176.423 55.611 176.446C60.8295 176.546 66.2365 177.95 70.8263 175.609L71.1092 175.458C73.7121 174.029 75.6046 171.6 77.8366 169.63C79.4413 168.241 81.1884 167.026 83.0488 166.005C86.4376 164.117 90.1094 162.607 93.5737 160.826C94.4605 160.368 95.3025 159.829 96.0886 159.215L96.6796 158.743L96.8117 158.629C96.9563 158.51 97.1009 158.39 97.2392 158.264L97.5096 158.025L97.7862 157.773L98 157.572L98.3458 157.245L98.3835 157.201L98.9305 156.659L99.1505 156.439L99.5341 156.043L99.7604 155.816C100.144 155.42 100.527 155.017 100.917 154.627C101.307 154.236 101.835 153.708 102.307 153.274L102.759 152.871L102.891 152.758L103.256 152.455L103.426 152.311L103.784 152.034L103.96 151.895C104.136 151.763 104.319 151.637 104.501 151.511C104.669 151.395 104.845 151.292 105.029 151.203L103.853 148.352L107.236 146.955L153.888 260.266L150.499 261.663L123.816 196.842L123.627 197.031C117.446 203.136 109.874 207.646 101.565 210.171H101.515C96.8682 211.575 91.6687 212.569 87.758 215.175C86.3713 216.077 85.1663 217.232 84.2056 218.579C83.2877 219.888 82.6464 221.38 81.6907 222.638C81.5084 222.871 81.3072 223.098 81.106 223.312C79.9626 224.446 78.6974 225.451 77.3336 226.307L76.7363 226.717C72.6855 229.569 68.4652 232.173 64.0989 234.514C61.5792 235.827 58.952 236.922 56.246 237.786C54.2781 238.416 52.2473 238.875 50.2794 239.498C48.9556 239.899 47.67 240.418 46.4378 241.046C43.1056 242.79 40.5466 245.521 38.126 248.435C36.0072 250.99 33.9953 253.696 31.669 256.024C30.2103 257.472 27.9909 258.844 26.2305 257.994L25.8721 257.787C25.9287 257.692 25.9727 257.598 26.023 257.497C27.4125 254.583 25.7023 250.984 23.4012 248.649C23.1623 248.403 22.9171 248.164 22.6656 247.938C22.4141 247.711 21.9614 247.308 21.603 246.994C19.6351 245.301 17.5414 243.727 16.1771 241.544C15.1357 239.709 14.4289 237.704 14.0897 235.622C13.461 232.657 13.0397 229.605 11.4302 227.082C10.3739 225.414 8.80207 223.992 7.65779 222.393C6.93446 221.447 6.45897 220.335 6.27458 219.158C6.0168 217.113 6.96618 215.112 7.32456 213.073C7.43117 212.517 7.47546 211.951 7.45659 211.386C7.32525 209.877 6.81248 208.426 5.96651 207.17V207.17Z" fill="url(#paint0_linear)"/>
<path d="M149.313 260.691L152.644 259.317L106.77 147.911L103.439 149.285L149.313 260.691Z" fill="#D6D8E1"/>
<path d="M12.5559 226.685C14.134 229.171 14.5552 232.167 15.1651 235.08C15.5033 237.129 16.1993 239.101 17.221 240.908C18.5665 243.054 20.6225 244.602 22.5527 246.264C22.9047 246.572 23.2568 246.893 23.5964 247.195C23.8416 247.415 24.0868 247.654 24.3194 247.887C26.5828 250.184 28.2615 253.727 26.8972 256.591C26.8553 256.688 26.807 256.783 26.7526 256.874C26.863 256.949 26.9786 257.017 27.0984 257.076C28.8337 257.919 31.0154 256.572 32.4489 255.143C34.7374 252.853 36.7179 250.197 38.799 247.686C41.1756 244.816 43.6968 242.129 46.9725 240.417C48.1818 239.797 49.4443 239.287 50.7449 238.894C52.6751 238.265 54.6745 237.818 56.6109 237.214C59.2708 236.362 61.8536 235.287 64.3317 233.998C68.632 231.694 72.7892 229.132 76.7806 226.326L77.3716 225.924C78.7119 225.083 79.9559 224.097 81.0811 222.985C81.2823 222.771 81.4772 222.55 81.6595 222.318C82.6278 221.059 83.2628 219.618 84.1745 218.328C85.1199 217.002 86.3058 215.867 87.6702 214.98C91.518 212.418 96.6233 211.436 101.194 210.058H101.244C109.412 207.571 116.856 203.138 122.936 197.138C123.44 196.717 123.816 196.163 124.023 195.54C124.218 194.652 123.74 193.771 123.281 192.991C122.747 192.072 122.225 191.153 121.71 190.222C119.391 185.998 117.321 181.641 115.51 177.176C115.114 176.194 114.731 175.218 114.36 174.23C113.408 171.713 112.541 169.16 111.757 166.571C111.499 165.715 111.248 164.853 111.009 163.991C110.965 163.827 110.914 163.651 110.87 163.462C109.827 159.265 108.431 149.441 104.13 152.38C102.851 153.295 101.662 154.33 100.578 155.47C99.7418 156.32 98.9245 157.194 98.0631 158.038C97.3615 158.728 96.6205 159.378 95.8437 159.982C95.0554 160.586 94.2136 161.117 93.3288 161.568C89.9148 163.318 86.3059 164.784 82.9799 166.659C81.1483 167.661 79.4285 168.855 77.8494 170.222C75.6552 172.16 73.7941 174.551 71.2352 175.955L70.9586 176.106C66.4443 178.403 61.1315 177.025 55.9948 176.924C55.2398 176.905 54.4844 176.924 53.7314 176.981C49.5629 177.295 45.7528 178.969 42.0684 181.015C39.4781 182.449 36.9506 184.073 34.4042 185.539C32.7947 186.465 31.1851 187.465 29.563 188.491C25.4511 191.084 21.2826 193.803 16.9884 195.766C12.5873 197.767 8.04157 198.963 3.24437 198.416C2.83569 201.657 5.45121 204.275 7.19908 207.132C8.03857 208.36 8.54746 209.784 8.67659 211.266C8.6997 211.821 8.65962 212.376 8.55713 212.922C8.20504 214.929 7.29967 216.893 7.52601 218.913C7.70443 220.065 8.16926 221.153 8.87778 222.078C9.97177 223.645 11.5122 225.049 12.5559 226.685Z" fill="#F86D70"/>
<path d="M140.383 239.794C140.383 239.794 145.891 244.602 151.474 247.164C157.057 249.725 153.36 258.913 153.36 258.913C153.36 258.913 147.443 260.272 143.3 254.508C139.157 248.743 140.383 239.794 140.383 239.794Z" fill="#FBBEBE"/>
<path d="M437.168 321.639C437.168 321.639 422.582 340.852 410.479 341.009C398.376 341.167 391.271 349.103 397.018 354.062C402.764 359.021 465.386 351.23 465.386 351.23C465.386 351.23 465.977 327.617 460.551 324.169C455.125 320.72 437.168 321.639 437.168 321.639Z" fill="#444176"/>
<path d="M594.005 344.704C594.005 344.704 596.237 359.921 589.34 370.298C582.443 380.676 601.801 384.679 601.801 384.679C601.801 384.679 615.866 388.599 616.891 374.691C617.916 360.783 617.583 350.147 616.262 349.014C614.942 347.882 613.842 340.059 613.842 340.059L594.005 344.704Z" fill="#444176"/>
<path d="M373.195 373.445C373.195 373.445 372.686 324.225 421.343 304.219L432.641 282.702L438.061 269.486C440.024 264.699 443.111 260.457 447.061 257.12C451.012 253.783 455.708 251.449 460.752 250.316L469.516 248.347L472.226 236.918C473.67 230.809 476.869 225.257 481.429 220.947C485.988 216.637 491.709 213.757 497.885 212.664C503.214 211.673 508.622 211.168 514.043 211.153C516.441 211.189 518.79 211.846 520.86 213.059C522.93 214.272 524.651 216 525.857 218.076V218.076C525.857 218.076 571.955 217.566 573.999 242.689C573.999 242.689 578.614 265.754 585.272 269.857C585.272 269.857 596.539 267.296 607.806 283.702L620.097 325.742C620.097 325.742 652.364 355.987 642.631 383.64C642.631 383.64 629.314 402.608 561.707 389.789C561.707 389.789 489.491 411.815 451.051 381.607C451.044 381.645 387.027 393.949 373.195 373.445Z" fill="#A8A8A8"/>
<path opacity="0.1" d="M405.461 365.755C405.461 365.755 415.71 351.4 415.194 341.142C414.679 330.883 417.609 305.899 417.609 305.899" stroke="black" stroke-miterlimit="10"/>
<path opacity="0.1" d="M442.852 327.303C442.852 327.303 453.094 308.334 452.069 298.083C452.069 298.083 462.827 278.573 471.019 280.134" stroke="black" stroke-miterlimit="10"/>
<path opacity="0.1" d="M499.192 273.47C499.192 273.47 527.359 263.218 528.9 255.018" stroke="black" stroke-miterlimit="10"/>
<path opacity="0.1" d="M509.435 297.057C509.435 297.057 539.142 283.728 539.142 280.134H553.986C553.986 280.134 575.501 308.335 572.943 320.638" stroke="black" stroke-miterlimit="10"/>
<path opacity="0.1" d="M544.266 317.561C544.266 317.561 515.583 315.509 505.335 323.715C495.087 331.922 476.653 336.019 476.653 336.019C476.653 336.019 465.895 359.09 461.796 363.187C457.696 367.284 451.038 381.645 451.038 381.645" stroke="black" stroke-miterlimit="10"/>
<path opacity="0.1" d="M544.266 344.735C544.266 344.735 547.334 355.497 551.434 361.651C555.533 367.806 561.676 389.845 561.676 389.845" stroke="black" stroke-miterlimit="10"/>
<path opacity="0.1" d="M592.408 376.007C592.408 376.007 598.909 394.112 604.625 394.289" stroke="black" stroke-miterlimit="10"/>
<path opacity="0.1" d="M549.824 298.29C549.824 298.29 566.712 302.859 573.773 313.929C580.833 324.999 602.399 335.037 602.399 335.037" stroke="black" stroke-miterlimit="10"/>
<path opacity="0.1" d="M557.067 243.753C557.067 243.753 557.067 267.334 563.726 267.334C570.384 267.334 585.241 269.895 585.241 269.895" stroke="black" stroke-miterlimit="10"/>
<path opacity="0.1" d="M524.436 215.747C524.436 215.747 522.732 256.484 514.024 267.032" stroke="black" stroke-miterlimit="10"/>
<g opacity="0.05">
<path opacity="0.05" d="M619.041 325.251L606.749 283.212C595.483 266.805 584.216 269.366 584.216 269.366C577.557 265.263 572.949 242.192 572.949 242.192C570.899 217.069 524.801 217.585 524.801 217.585C523.593 215.506 521.868 213.775 519.793 212.562C517.718 211.349 515.364 210.694 512.962 210.662C510.786 210.662 508.561 210.732 506.335 210.914C507.592 211.04 508.797 211.218 509.95 211.449L513.534 217.604C513.534 217.604 559.626 217.088 561.676 242.211C561.676 242.211 566.291 265.282 572.949 269.385C572.949 269.385 584.216 266.818 595.483 283.23L607.774 325.27C607.774 325.27 640.041 355.515 630.308 383.168C630.308 383.168 623.738 392.526 596.407 393.659C633.257 395.012 641.575 383.168 641.575 383.168C651.307 355.497 619.041 325.251 619.041 325.251Z" fill="black"/>
<path opacity="0.05" d="M438.753 381.129C427.911 383.082 416.947 384.283 405.939 384.723C418.772 385.214 432.12 383.823 440.721 382.64C440.054 382.13 439.4 381.639 438.753 381.129Z" fill="black"/>
<path opacity="0.05" d="M549.384 389.336C533.616 393.762 517.386 396.331 501.022 396.988C524.631 397.844 546.995 392.917 556.212 390.55C553.987 390.179 551.73 389.757 549.384 389.336Z" fill="black"/>
</g>
<path d="M140.112 469.299C140.112 469.299 154.202 468.864 158.446 465.837C162.69 462.81 180.112 459.198 181.168 464.05C182.225 468.902 202.338 488.185 186.431 488.317C170.524 488.449 149.48 485.837 145.243 483.251C141.005 480.664 140.112 469.299 140.112 469.299Z" fill="#A8A8A8"/>
<path opacity="0.2" d="M186.72 486.624C170.813 486.756 149.763 484.144 145.526 481.589C142.3 479.62 141.011 472.558 140.584 469.305H140.112C140.112 469.305 141.005 480.677 145.243 483.257C149.48 485.837 170.53 488.449 186.431 488.323C191.027 488.286 192.611 486.649 192.523 484.226C191.888 485.686 190.134 486.599 186.72 486.624Z" fill="black"/>
<path d="M483.613 433.93C483.613 433.93 467.02 430.607 462.6 426.177C458.18 421.746 438.269 414.005 436.055 419.537C433.842 425.069 406.197 443.892 424.996 447.228C443.795 450.563 469.233 451.633 474.766 449.443C480.299 447.253 483.613 433.93 483.613 433.93Z" fill="#A8A8A8"/>
<path opacity="0.2" d="M424.996 445.139C443.802 448.455 469.234 449.544 474.767 447.347C478.973 445.661 481.903 437.561 483.06 433.792L483.613 433.911C483.613 433.911 480.293 447.19 474.767 449.405C469.24 451.621 443.802 450.513 424.996 447.19C419.57 446.234 418.017 443.981 418.602 441.136C419.067 443.011 420.96 444.44 424.996 445.139Z" fill="black"/>
<path opacity="0.1" d="M324.739 72.2787H320.79C321.524 72.2787 322.228 71.9869 322.746 71.4676C323.265 70.9484 323.557 70.244 323.557 69.5096C323.557 68.7752 323.265 68.0709 322.746 67.5516C322.228 67.0323 321.524 66.7406 320.79 66.7406H288.801C288.067 66.7406 287.363 67.0323 286.844 67.5516C286.326 68.0709 286.034 68.7752 286.034 69.5096C286.034 70.244 286.326 70.9484 286.844 71.4676C287.363 71.9869 288.067 72.2787 288.801 72.2787H292.749C292.039 72.3126 291.369 72.6188 290.879 73.1338C290.388 73.6488 290.114 74.333 290.114 75.0446C290.114 75.7562 290.388 76.4404 290.879 76.9554C291.369 77.4704 292.039 77.7766 292.749 77.8105H287.222C286.489 77.8105 285.785 78.1022 285.266 78.6215C284.748 79.1408 284.456 79.8452 284.456 80.5796C284.456 81.314 284.748 82.0183 285.266 82.5376C285.785 83.0569 286.489 83.3486 287.222 83.3486H319.212C319.946 83.3486 320.65 83.0569 321.168 82.5376C321.687 82.0183 321.979 81.314 321.979 80.5796C321.979 79.8452 321.687 79.1408 321.168 78.6215C320.65 78.1022 319.946 77.8105 319.212 77.8105H324.739C325.113 77.8284 325.486 77.7701 325.837 77.6391C326.188 77.5082 326.509 77.3073 326.78 77.0487C327.051 76.7901 327.266 76.4792 327.414 76.1347C327.561 75.7902 327.637 75.4193 327.637 75.0446C327.637 74.6698 327.561 74.299 327.414 73.9545C327.266 73.61 327.051 73.2991 326.78 73.0405C326.509 72.7819 326.188 72.581 325.837 72.4501C325.486 72.3191 325.113 72.2608 324.739 72.2787V72.2787Z" fill="#5843E4"/>
<path opacity="0.1" d="M448.988 169.705H445.04C445.75 169.672 446.42 169.365 446.91 168.85C447.401 168.335 447.675 167.651 447.675 166.94C447.675 166.228 447.401 165.544 446.91 165.029C446.42 164.514 445.75 164.208 445.04 164.174H413.019C412.645 164.156 412.271 164.214 411.92 164.345C411.57 164.476 411.249 164.677 410.978 164.935C410.707 165.194 410.491 165.505 410.344 165.849C410.197 166.194 410.121 166.565 410.121 166.94C410.121 167.314 410.197 167.685 410.344 168.03C410.491 168.374 410.707 168.685 410.978 168.944C411.249 169.202 411.57 169.403 411.92 169.534C412.271 169.665 412.645 169.723 413.019 169.705H416.967C416.257 169.739 415.587 170.046 415.097 170.561C414.606 171.076 414.333 171.76 414.333 172.471C414.333 173.183 414.606 173.867 415.097 174.382C415.587 174.897 416.257 175.203 416.967 175.237H411.441C410.707 175.237 410.003 175.529 409.485 176.048C408.966 176.568 408.674 177.272 408.674 178.006C408.674 178.741 408.966 179.445 409.485 179.964C410.003 180.484 410.707 180.775 411.441 180.775H443.424C444.158 180.775 444.862 180.484 445.38 179.964C445.899 179.445 446.191 178.741 446.191 178.006C446.191 177.272 445.899 176.568 445.38 176.048C444.862 175.529 444.158 175.237 443.424 175.237H448.988C449.362 175.255 449.736 175.197 450.087 175.066C450.438 174.935 450.758 174.734 451.029 174.475C451.3 174.217 451.516 173.906 451.663 173.561C451.811 173.217 451.887 172.846 451.887 172.471C451.887 172.097 451.811 171.726 451.663 171.381C451.516 171.037 451.3 170.726 451.029 170.467C450.758 170.209 450.438 170.008 450.087 169.877C449.736 169.746 449.362 169.688 448.988 169.705V169.705Z" fill="#5843E4"/>
<path opacity="0.1" d="M264.877 151.681H260.929C261.303 151.699 261.677 151.641 262.027 151.51C262.378 151.379 262.699 151.178 262.97 150.92C263.241 150.661 263.456 150.35 263.604 150.006C263.751 149.661 263.827 149.29 263.827 148.915C263.827 148.541 263.751 148.17 263.604 147.825C263.456 147.481 263.241 147.17 262.97 146.911C262.699 146.653 262.378 146.452 262.027 146.321C261.677 146.19 261.303 146.132 260.929 146.15H228.933C228.559 146.132 228.185 146.19 227.834 146.321C227.484 146.452 227.163 146.653 226.892 146.911C226.621 147.17 226.405 147.481 226.258 147.825C226.111 148.17 226.035 148.541 226.035 148.915C226.035 149.29 226.111 149.661 226.258 150.006C226.405 150.35 226.621 150.661 226.892 150.92C227.163 151.178 227.484 151.379 227.834 151.51C228.185 151.641 228.559 151.699 228.933 151.681H232.881C232.507 151.664 232.134 151.722 231.783 151.853C231.432 151.984 231.111 152.185 230.84 152.443C230.57 152.702 230.354 153.013 230.206 153.357C230.059 153.702 229.983 154.073 229.983 154.447C229.983 154.822 230.059 155.193 230.206 155.537C230.354 155.882 230.57 156.193 230.84 156.451C231.111 156.71 231.432 156.911 231.783 157.042C232.134 157.173 232.507 157.231 232.881 157.213H227.348C226.615 157.213 225.911 157.505 225.392 158.024C224.874 158.544 224.582 159.248 224.582 159.982C224.582 160.717 224.874 161.421 225.392 161.94C225.911 162.46 226.615 162.751 227.348 162.751H259.338C260.072 162.751 260.776 162.46 261.294 161.94C261.813 161.421 262.105 160.717 262.105 159.982C262.105 159.248 261.813 158.544 261.294 158.024C260.776 157.505 260.072 157.213 259.338 157.213H264.865C265.239 157.231 265.612 157.173 265.963 157.042C266.314 156.911 266.635 156.71 266.906 156.451C267.177 156.193 267.392 155.882 267.54 155.537C267.687 155.193 267.763 154.822 267.763 154.447C267.763 154.073 267.687 153.702 267.54 153.357C267.392 153.013 267.177 152.702 266.906 152.443C266.635 152.185 266.314 151.984 265.963 151.853C265.612 151.722 265.239 151.664 264.865 151.681H264.877Z" fill="#5843E4"/>
</g>
<defs>
<linearGradient id="paint0_linear" x1="-455991" y1="41244.6" x2="-492743" y2="41244.6" gradientUnits="userSpaceOnUse">
<stop stop-color="#808080" stop-opacity="0.25"/>
<stop offset="0.54" stop-color="#808080" stop-opacity="0.12"/>
<stop offset="1" stop-color="#808080" stop-opacity="0.1"/>
</linearGradient>
<clipPath id="clip0">
<rect width="649" height="524" fill="white"/>
</clipPath>
</defs>
</svg>
